<?xml version="1.0" encoding="UTF-8"?>
<svg xmlns="http://www.w3.org/2000/svg" xmlns:xlink="http://www.w3.org/1999/xlink" width="248.364" height="139.235" viewBox="0 0 248.364 139.235">
<defs>
<g>
<g id="glyph-0-0">
<path d="M 2.625 -4.890625 C 2.65625 -5 2.65625 -5.015625 2.65625 -5.03125 C 2.65625 -5.140625 2.578125 -5.203125 2.5 -5.203125 C 2.375 -5.203125 2.359375 -5.125 2.3125 -5.03125 L 1 -1.875 C 0.953125 -1.78125 0.953125 -1.765625 0.953125 -1.734375 C 0.953125 -1.703125 0.953125 -1.703125 1 -1.609375 L 2.296875 1.546875 C 2.34375 1.65625 2.390625 1.734375 2.5 1.734375 C 2.578125 1.734375 2.65625 1.671875 2.65625 1.546875 C 2.65625 1.53125 2.65625 1.515625 2.625 1.421875 L 1.3125 -1.734375 Z M 2.625 -4.890625 "/>
</g>
<g id="glyph-0-1">
<path d="M 2.203125 -1.609375 C 2.234375 -1.703125 2.234375 -1.71875 2.234375 -1.734375 C 2.234375 -1.765625 2.234375 -1.78125 2.203125 -1.875 L 0.890625 -5.015625 C 0.859375 -5.125 0.8125 -5.203125 0.703125 -5.203125 C 0.625 -5.203125 0.53125 -5.140625 0.53125 -5.03125 C 0.53125 -5.015625 0.53125 -5 0.578125 -4.890625 L 1.890625 -1.734375 L 0.578125 1.421875 C 0.53125 1.515625 0.53125 1.53125 0.53125 1.546875 C 0.53125 1.671875 0.625 1.734375 0.703125 1.734375 C 0.8125 1.734375 0.84375 1.65625 0.890625 1.546875 Z M 2.203125 -1.609375 "/>
</g>
<g id="glyph-1-0">
<path d="M 0.515625 0.84375 C 0.46875 1.046875 0.453125 1.09375 0.1875 1.09375 C 0.09375 1.09375 0 1.09375 0 1.234375 C 0 1.3125 0.0625 1.34375 0.09375 1.34375 C 0.265625 1.34375 0.5 1.3125 0.6875 1.3125 C 0.921875 1.3125 1.1875 1.34375 1.421875 1.34375 C 1.484375 1.34375 1.546875 1.328125 1.546875 1.1875 C 1.546875 1.09375 1.453125 1.09375 1.375 1.09375 C 1.21875 1.09375 1.03125 1.09375 1.03125 1.015625 C 1.03125 0.984375 1.078125 0.796875 1.109375 0.6875 C 1.1875 0.328125 1.296875 -0.046875 1.359375 -0.34375 C 1.453125 -0.203125 1.671875 0.0625 2.078125 0.0625 C 2.921875 0.0625 3.859375 -0.875 3.859375 -1.90625 C 3.859375 -2.71875 3.296875 -3.0625 2.828125 -3.0625 C 2.390625 -3.0625 2.03125 -2.765625 1.84375 -2.578125 C 1.71875 -2.96875 1.328125 -3.0625 1.125 -3.0625 C 0.859375 -3.0625 0.6875 -2.875 0.578125 -2.6875 C 0.4375 -2.453125 0.328125 -2.046875 0.328125 -2 C 0.328125 -1.90625 0.421875 -1.90625 0.4375 -1.90625 C 0.546875 -1.90625 0.546875 -1.921875 0.59375 -2.109375 C 0.703125 -2.515625 0.828125 -2.859375 1.109375 -2.859375 C 1.28125 -2.859375 1.328125 -2.71875 1.328125 -2.53125 C 1.328125 -2.453125 1.3125 -2.359375 1.3125 -2.3125 Z M 1.828125 -2.234375 C 2.234375 -2.765625 2.578125 -2.859375 2.796875 -2.859375 C 3.078125 -2.859375 3.3125 -2.65625 3.3125 -2.1875 C 3.3125 -1.90625 3.15625 -1.203125 2.953125 -0.796875 C 2.78125 -0.453125 2.4375 -0.125 2.078125 -0.125 C 1.59375 -0.125 1.46875 -0.65625 1.46875 -0.734375 C 1.46875 -0.75 1.484375 -0.8125 1.484375 -0.828125 Z M 1.828125 -2.234375 "/>
</g>
<g id="glyph-1-1">
<path d="M 1.46875 -0.109375 C 1.46875 0.265625 1.390625 0.71875 0.921875 1.15625 C 0.890625 1.1875 0.875 1.203125 0.875 1.234375 C 0.875 1.296875 0.921875 1.34375 0.96875 1.34375 C 1.0625 1.34375 1.65625 0.78125 1.65625 -0.046875 C 1.65625 -0.46875 1.484375 -0.796875 1.171875 -0.796875 C 0.9375 -0.796875 0.78125 -0.625 0.78125 -0.40625 C 0.78125 -0.1875 0.9375 0 1.171875 0 C 1.34375 0 1.453125 -0.109375 1.46875 -0.109375 Z M 1.46875 -0.109375 "/>
</g>
<g id="glyph-1-2">
<path d="M 3.53125 -2.859375 C 3.53125 -2.890625 3.546875 -2.921875 3.546875 -2.96875 C 3.546875 -3 3.515625 -3.0625 3.453125 -3.0625 C 3.390625 -3.0625 3.09375 -2.828125 2.953125 -2.609375 C 2.890625 -2.734375 2.65625 -3.0625 2.21875 -3.0625 C 1.328125 -3.0625 0.421875 -2.078125 0.421875 -1.078125 C 0.421875 -0.40625 0.875 0.0625 1.46875 0.0625 C 1.859375 0.0625 2.1875 -0.1875 2.34375 -0.3125 C 2.34375 -0.296875 2.125 0.578125 2.09375 0.703125 C 2 1.078125 1.984375 1.09375 1.5625 1.09375 C 1.484375 1.09375 1.375 1.09375 1.375 1.25 C 1.375 1.296875 1.421875 1.34375 1.484375 1.34375 C 1.71875 1.34375 1.96875 1.3125 2.203125 1.3125 C 2.4375 1.3125 2.734375 1.34375 2.953125 1.34375 C 3.015625 1.34375 3.09375 1.328125 3.09375 1.1875 C 3.09375 1.09375 2.984375 1.09375 2.90625 1.09375 C 2.75 1.09375 2.5625 1.09375 2.5625 1.015625 C 2.5625 0.984375 2.5625 0.984375 2.609375 0.859375 Z M 2.484375 -0.875 C 2.453125 -0.75 2.453125 -0.75 2.359375 -0.625 C 2.09375 -0.3125 1.765625 -0.125 1.484375 -0.125 C 1.234375 -0.125 0.984375 -0.3125 0.984375 -0.796875 C 0.984375 -1.171875 1.1875 -1.921875 1.34375 -2.203125 C 1.671875 -2.765625 2.015625 -2.859375 2.21875 -2.859375 C 2.703125 -2.859375 2.828125 -2.328125 2.828125 -2.265625 C 2.828125 -2.234375 2.8125 -2.1875 2.8125 -2.15625 Z M 2.484375 -0.875 "/>
</g>
<g id="glyph-2-0">
<path d="M 2.984375 -1.578125 C 2.984375 -1.9375 2.984375 -3.296875 1.6875 -3.296875 C 0.390625 -3.296875 0.390625 -1.9375 0.390625 -1.578125 C 0.390625 -1.21875 0.390625 0.109375 1.6875 0.109375 C 2.984375 0.109375 2.984375 -1.21875 2.984375 -1.578125 Z M 1.6875 -0.046875 C 1.5 -0.046875 1.078125 -0.125 0.953125 -0.625 C 0.890625 -0.890625 0.890625 -1.234375 0.890625 -1.640625 C 0.890625 -2.015625 0.890625 -2.359375 0.96875 -2.640625 C 1.09375 -3.046875 1.46875 -3.140625 1.6875 -3.140625 C 2.046875 -3.140625 2.3125 -2.953125 2.40625 -2.59375 C 2.484375 -2.34375 2.484375 -1.9375 2.484375 -1.640625 C 2.484375 -1.3125 2.484375 -0.90625 2.40625 -0.609375 C 2.28125 -0.125 1.875 -0.046875 1.6875 -0.046875 Z M 1.6875 -0.046875 "/>
</g>
<g id="glyph-2-1">
<path d="M 1.96875 -3.15625 C 1.96875 -3.296875 1.953125 -3.296875 1.796875 -3.296875 C 1.4375 -2.984375 0.890625 -2.984375 0.796875 -2.984375 L 0.703125 -2.984375 L 0.703125 -2.765625 L 0.796875 -2.765625 C 0.90625 -2.765625 1.234375 -2.78125 1.515625 -2.90625 L 1.515625 -0.421875 C 1.515625 -0.265625 1.515625 -0.21875 0.984375 -0.21875 L 0.75 -0.21875 L 0.75 0 C 1.015625 -0.015625 1.453125 -0.015625 1.75 -0.015625 C 2.03125 -0.015625 2.46875 -0.015625 2.75 0 L 2.75 -0.21875 L 2.5 -0.21875 C 1.96875 -0.21875 1.96875 -0.265625 1.96875 -0.421875 Z M 1.96875 -3.15625 "/>
</g>
<g id="glyph-3-0">
<path d="M 2.859375 -1.609375 C 2.890625 -1.703125 2.9375 -1.890625 2.9375 -1.921875 C 2.9375 -2 2.875 -2.09375 2.75 -2.09375 C 2.671875 -2.09375 2.546875 -2.03125 2.5 -1.890625 C 2.40625 -2.015625 2.21875 -2.1875 1.90625 -2.1875 C 1.21875 -2.1875 0.515625 -1.515625 0.515625 -0.8125 C 0.515625 -0.296875 0.890625 0.046875 1.390625 0.046875 C 1.796875 0.046875 2.109375 -0.234375 2.171875 -0.296875 C 2.265625 -0.046875 2.53125 0.046875 2.75 0.046875 C 2.953125 0.046875 3.078125 -0.0625 3.1875 -0.21875 C 3.3125 -0.421875 3.390625 -0.671875 3.390625 -0.71875 C 3.390625 -0.78125 3.296875 -0.78125 3.28125 -0.78125 C 3.1875 -0.78125 3.1875 -0.75 3.171875 -0.671875 C 3.078125 -0.3125 2.953125 -0.109375 2.78125 -0.109375 C 2.640625 -0.109375 2.578125 -0.21875 2.578125 -0.375 C 2.578125 -0.453125 2.625 -0.640625 2.65625 -0.765625 Z M 2.203125 -0.65625 C 2.171875 -0.578125 2.171875 -0.578125 2.09375 -0.46875 C 1.90625 -0.265625 1.65625 -0.109375 1.40625 -0.109375 C 1.234375 -0.109375 0.96875 -0.203125 0.96875 -0.625 C 0.96875 -0.84375 1.078125 -1.359375 1.265625 -1.625 C 1.453125 -1.890625 1.703125 -2.015625 1.90625 -2.015625 C 2.140625 -2.015625 2.34375 -1.890625 2.421875 -1.59375 Z M 2.203125 -0.65625 "/>
</g>
<g id="glyph-3-1">
<path d="M 1.5625 -3.25 C 1.578125 -3.3125 1.578125 -3.328125 1.578125 -3.359375 C 1.578125 -3.4375 1.5 -3.4375 1.421875 -3.4375 L 0.8125 -3.390625 C 0.734375 -3.390625 0.71875 -3.375 0.703125 -3.359375 C 0.671875 -3.328125 0.65625 -3.28125 0.65625 -3.25 C 0.65625 -3.15625 0.75 -3.15625 0.8125 -3.15625 C 0.8125 -3.15625 0.90625 -3.15625 0.984375 -3.15625 C 1.078125 -3.140625 1.078125 -3.125 1.078125 -3.078125 C 1.078125 -3.0625 1.03125 -2.859375 1 -2.75 L 0.59375 -1.09375 C 0.5625 -0.984375 0.546875 -0.90625 0.546875 -0.796875 C 0.546875 -0.28125 0.921875 0.046875 1.390625 0.046875 C 2.109375 0.046875 2.78125 -0.640625 2.78125 -1.328125 C 2.78125 -1.8125 2.4375 -2.1875 1.921875 -2.1875 C 1.71875 -2.1875 1.46875 -2.109375 1.234375 -1.921875 Z M 1.40625 -0.109375 C 1.1875 -0.109375 0.953125 -0.25 0.953125 -0.640625 C 0.953125 -0.796875 0.984375 -0.953125 1.03125 -1.125 C 1.046875 -1.1875 1.125 -1.515625 1.125 -1.546875 C 1.140625 -1.59375 1.484375 -2.015625 1.90625 -2.015625 C 2.125 -2.015625 2.34375 -1.890625 2.34375 -1.515625 C 2.34375 -1.328125 2.25 -0.859375 2.09375 -0.578125 C 1.921875 -0.28125 1.640625 -0.109375 1.40625 -0.109375 Z M 1.40625 -0.109375 "/>
</g>
<g id="glyph-3-2">
<path d="M 2.546875 -1.90625 C 2.46875 -1.890625 2.328125 -1.78125 2.328125 -1.609375 C 2.328125 -1.484375 2.421875 -1.40625 2.546875 -1.40625 C 2.65625 -1.40625 2.84375 -1.5 2.84375 -1.75 C 2.84375 -2.125 2.375 -2.1875 2.09375 -2.1875 C 1.265625 -2.1875 0.53125 -1.5 0.53125 -0.84375 C 0.53125 -0.421875 0.84375 0.046875 1.59375 0.046875 C 1.6875 0.046875 2.078125 0.046875 2.421875 -0.078125 C 2.75 -0.203125 2.953125 -0.4375 2.953125 -0.484375 C 2.953125 -0.53125 2.890625 -0.59375 2.84375 -0.59375 C 2.8125 -0.59375 2.8125 -0.59375 2.734375 -0.515625 C 2.515625 -0.265625 2.09375 -0.109375 1.59375 -0.109375 C 1.1875 -0.109375 0.984375 -0.34375 0.984375 -0.6875 C 0.984375 -1.1875 1.3125 -2.015625 2.09375 -2.015625 C 2.15625 -2.015625 2.390625 -2.015625 2.546875 -1.90625 Z M 2.546875 -1.90625 "/>
</g>
<g id="glyph-3-3">
<path d="M 3.28125 -3.25 C 3.296875 -3.3125 3.296875 -3.328125 3.296875 -3.359375 C 3.296875 -3.4375 3.21875 -3.4375 3.140625 -3.4375 L 2.53125 -3.390625 C 2.453125 -3.390625 2.4375 -3.375 2.421875 -3.359375 C 2.390625 -3.328125 2.375 -3.28125 2.375 -3.25 C 2.375 -3.15625 2.46875 -3.15625 2.53125 -3.15625 C 2.53125 -3.15625 2.625 -3.15625 2.703125 -3.15625 C 2.796875 -3.140625 2.796875 -3.125 2.796875 -3.078125 C 2.796875 -3.0625 2.765625 -2.90625 2.734375 -2.828125 L 2.5 -1.890625 C 2.40625 -2.015625 2.21875 -2.1875 1.90625 -2.1875 C 1.21875 -2.1875 0.515625 -1.515625 0.515625 -0.8125 C 0.515625 -0.296875 0.890625 0.046875 1.390625 0.046875 C 1.796875 0.046875 2.109375 -0.234375 2.171875 -0.296875 C 2.265625 -0.046875 2.53125 0.046875 2.75 0.046875 C 2.953125 0.046875 3.078125 -0.0625 3.1875 -0.21875 C 3.3125 -0.421875 3.390625 -0.671875 3.390625 -0.71875 C 3.390625 -0.78125 3.296875 -0.78125 3.28125 -0.78125 C 3.1875 -0.78125 3.1875 -0.75 3.171875 -0.671875 C 3.078125 -0.3125 2.953125 -0.109375 2.78125 -0.109375 C 2.640625 -0.109375 2.578125 -0.21875 2.578125 -0.375 C 2.578125 -0.4375 2.578125 -0.484375 2.59375 -0.53125 Z M 2.203125 -0.65625 C 2.171875 -0.578125 2.171875 -0.578125 2.09375 -0.46875 C 1.90625 -0.265625 1.65625 -0.109375 1.40625 -0.109375 C 1.234375 -0.109375 0.96875 -0.203125 0.96875 -0.625 C 0.96875 -0.84375 1.078125 -1.359375 1.265625 -1.625 C 1.453125 -1.890625 1.703125 -2.015625 1.90625 -2.015625 C 2.140625 -2.015625 2.34375 -1.890625 2.421875 -1.59375 Z M 2.203125 -0.65625 "/>
</g>
<g id="glyph-3-4">
<path d="M 1.34375 -0.0625 C 1.34375 0.40625 1.078125 0.671875 0.953125 0.78125 C 0.890625 0.828125 0.890625 0.84375 0.890625 0.875 C 0.890625 0.90625 0.9375 0.953125 0.96875 0.953125 C 1.046875 0.953125 1.5 0.578125 1.5 -0.046875 C 1.5 -0.375 1.359375 -0.609375 1.140625 -0.609375 C 0.953125 -0.609375 0.828125 -0.453125 0.828125 -0.296875 C 0.828125 -0.140625 0.953125 0 1.140625 0 C 1.203125 0 1.28125 -0.015625 1.34375 -0.0625 Z M 1.34375 -0.0625 "/>
</g>
<g id="glyph-4-0">
<path d="M 3.78125 -1.71875 C 3.859375 -1.734375 3.875 -1.765625 3.890625 -1.78125 C 3.9375 -1.84375 3.921875 -1.921875 3.84375 -1.96875 C 3.78125 -2.015625 3.71875 -1.984375 3.640625 -1.953125 L 1.5625 -0.609375 C 1.5 -0.578125 1.484375 -0.5625 1.46875 -0.546875 C 1.453125 -0.515625 1.4375 -0.46875 1.4375 -0.4375 L 1.140625 2.03125 C 1.140625 2.109375 1.125 2.171875 1.203125 2.21875 C 1.28125 2.265625 1.359375 2.234375 1.40625 2.171875 C 1.421875 2.15625 1.40625 2.125 1.421875 2.078125 L 1.71875 -0.375 Z M 3.78125 -1.71875 "/>
</g>
<g id="glyph-4-1">
<path d="M 2.265625 0.09375 C 2.328125 0.046875 2.34375 0.015625 2.34375 0.015625 C 2.359375 -0.015625 2.375 -0.03125 2.375 -0.078125 L 2.671875 -2.546875 C 2.6875 -2.625 2.703125 -2.6875 2.625 -2.734375 C 2.5625 -2.78125 2.484375 -2.765625 2.4375 -2.703125 C 2.421875 -2.671875 2.421875 -2.625 2.421875 -2.609375 L 2.09375 -0.140625 L 0.03125 1.171875 C -0.03125 1.234375 -0.046875 1.25 -0.046875 1.25 C -0.09375 1.3125 -0.078125 1.40625 -0.015625 1.453125 C 0.0625 1.5 0.109375 1.453125 0.171875 1.421875 Z M 2.265625 0.09375 "/>
</g>
<g id="glyph-5-0">
<path d="M 3.28125 0.15625 C 3.359375 0.09375 3.484375 -0.03125 3.5 -0.0625 C 3.546875 -0.125 3.546875 -0.234375 3.4375 -0.296875 C 3.375 -0.34375 3.234375 -0.359375 3.109375 -0.265625 C 3.109375 -0.421875 3.046875 -0.671875 2.78125 -0.84375 C 2.203125 -1.203125 1.25 -1 0.875 -0.40625 C 0.59375 0.03125 0.71875 0.515625 1.140625 0.78125 C 1.484375 1 1.90625 0.921875 2 0.90625 C 1.953125 1.15625 2.109375 1.390625 2.296875 1.515625 C 2.46875 1.625 2.640625 1.59375 2.8125 1.515625 C 3.015625 1.40625 3.234375 1.25 3.25 1.203125 C 3.296875 1.15625 3.21875 1.09375 3.203125 1.09375 C 3.125 1.046875 3.109375 1.0625 3.046875 1.125 C 2.78125 1.375 2.5625 1.484375 2.421875 1.390625 C 2.296875 1.3125 2.296875 1.1875 2.390625 1.0625 C 2.421875 0.984375 2.5625 0.84375 2.65625 0.78125 Z M 2.203125 0.609375 C 2.15625 0.671875 2.15625 0.671875 2.015625 0.71875 C 1.75 0.796875 1.46875 0.78125 1.25 0.65625 C 1.109375 0.5625 0.921875 0.34375 1.140625 -0.015625 C 1.265625 -0.203125 1.625 -0.578125 1.9375 -0.703125 C 2.234375 -0.8125 2.515625 -0.796875 2.6875 -0.6875 C 2.890625 -0.5625 2.984375 -0.34375 2.890625 -0.046875 Z M 2.203125 0.609375 "/>
</g>
<g id="glyph-5-1">
<path d="M 1.171875 0.671875 C 0.921875 1.0625 0.546875 1.140625 0.390625 1.15625 C 0.3125 1.171875 0.296875 1.1875 0.28125 1.203125 C 0.265625 1.234375 0.296875 1.3125 0.3125 1.328125 C 0.390625 1.375 0.953125 1.28125 1.296875 0.75 C 1.46875 0.484375 1.484375 0.203125 1.296875 0.09375 C 1.140625 -0.015625 0.9375 0.046875 0.859375 0.1875 C 0.78125 0.3125 0.8125 0.5 0.96875 0.609375 C 1.015625 0.640625 1.09375 0.671875 1.171875 0.671875 Z M 1.171875 0.671875 "/>
</g>
<g id="glyph-5-2">
<path d="M 3.171875 -0.25 C 3.09375 -0.28125 2.921875 -0.265625 2.828125 -0.125 C 2.765625 -0.015625 2.796875 0.109375 2.90625 0.171875 C 3 0.234375 3.203125 0.25 3.34375 0.03125 C 3.53125 -0.28125 3.1875 -0.59375 2.9375 -0.75 C 2.25 -1.1875 1.25 -0.984375 0.90625 -0.4375 C 0.671875 -0.078125 0.6875 0.5 1.3125 0.890625 C 1.390625 0.953125 1.734375 1.15625 2.09375 1.234375 C 2.4375 1.296875 2.734375 1.203125 2.765625 1.171875 C 2.78125 1.125 2.765625 1.03125 2.71875 1.015625 C 2.6875 1 2.6875 1 2.59375 1.015625 C 2.265625 1.125 1.828125 1.015625 1.40625 0.75 C 1.0625 0.53125 1.015625 0.234375 1.1875 -0.046875 C 1.453125 -0.46875 2.1875 -1 2.84375 -0.59375 C 2.90625 -0.5625 3.109375 -0.4375 3.171875 -0.25 Z M 3.171875 -0.25 "/>
</g>
<g id="glyph-5-3">
<path d="M 3.0625 -1.921875 C 3.09375 -1.953125 3.09375 -1.96875 3.109375 -2 C 3.15625 -2.0625 3.09375 -2.109375 3.03125 -2.15625 L 2.5 -2.4375 C 2.4375 -2.484375 2.40625 -2.484375 2.375 -2.46875 C 2.328125 -2.453125 2.3125 -2.4375 2.296875 -2.40625 C 2.25 -2.328125 2.328125 -2.265625 2.375 -2.234375 C 2.375 -2.234375 2.453125 -2.1875 2.515625 -2.140625 C 2.578125 -2.078125 2.5625 -2.0625 2.546875 -2.03125 C 2.53125 -2.015625 2.390625 -1.875 2.3125 -1.796875 L 1.078125 -0.609375 C 1 -0.53125 0.953125 -0.46875 0.890625 -0.375 C 0.625 0.0625 0.75 0.53125 1.140625 0.78125 C 1.75 1.171875 2.703125 0.9375 3.0625 0.359375 C 3.328125 -0.046875 3.234375 -0.5625 2.796875 -0.84375 C 2.625 -0.9375 2.375 -1 2.0625 -0.96875 Z M 1.25 0.65625 C 1.0625 0.53125 0.953125 0.28125 1.15625 -0.046875 C 1.234375 -0.171875 1.328125 -0.28125 1.46875 -0.40625 C 1.515625 -0.4375 1.765625 -0.6875 1.78125 -0.71875 C 1.8125 -0.734375 2.328125 -0.90625 2.6875 -0.6875 C 2.875 -0.578125 2.984375 -0.34375 2.796875 -0.03125 C 2.6875 0.125 2.359375 0.46875 2.078125 0.625 C 1.78125 0.78125 1.453125 0.78125 1.25 0.65625 Z M 1.25 0.65625 "/>
</g>
<g id="glyph-5-4">
<path d="M 4.515625 -1 C 4.5625 -1.046875 4.5625 -1.0625 4.578125 -1.09375 C 4.625 -1.15625 4.546875 -1.1875 4.484375 -1.234375 L 3.953125 -1.53125 C 3.890625 -1.5625 3.859375 -1.5625 3.828125 -1.546875 C 3.796875 -1.546875 3.765625 -1.515625 3.75 -1.484375 C 3.703125 -1.40625 3.78125 -1.359375 3.828125 -1.328125 C 3.828125 -1.328125 3.90625 -1.28125 3.96875 -1.234375 C 4.046875 -1.171875 4.03125 -1.15625 4.015625 -1.125 C 4 -1.109375 3.890625 -0.984375 3.8125 -0.9375 L 3.109375 -0.265625 C 3.109375 -0.421875 3.046875 -0.671875 2.78125 -0.84375 C 2.203125 -1.203125 1.25 -1 0.875 -0.40625 C 0.59375 0.03125 0.71875 0.515625 1.140625 0.78125 C 1.484375 1 1.90625 0.921875 2 0.90625 C 1.953125 1.15625 2.109375 1.390625 2.296875 1.515625 C 2.46875 1.625 2.640625 1.59375 2.8125 1.515625 C 3.015625 1.40625 3.234375 1.25 3.25 1.203125 C 3.296875 1.15625 3.21875 1.09375 3.203125 1.09375 C 3.125 1.046875 3.109375 1.0625 3.046875 1.125 C 2.78125 1.375 2.5625 1.484375 2.421875 1.390625 C 2.296875 1.3125 2.296875 1.1875 2.390625 1.0625 C 2.421875 1 2.453125 0.96875 2.484375 0.921875 Z M 2.203125 0.609375 C 2.15625 0.671875 2.15625 0.671875 2.015625 0.71875 C 1.75 0.796875 1.46875 0.78125 1.25 0.65625 C 1.109375 0.5625 0.921875 0.34375 1.140625 -0.015625 C 1.265625 -0.203125 1.625 -0.578125 1.9375 -0.703125 C 2.234375 -0.8125 2.515625 -0.796875 2.6875 -0.6875 C 2.890625 -0.5625 2.984375 -0.34375 2.890625 -0.046875 Z M 2.203125 0.609375 "/>
</g>
<g id="glyph-6-0">
<path d="M 3.46875 2.296875 C 3.53125 2.34375 3.5625 2.34375 3.578125 2.34375 C 3.65625 2.34375 3.71875 2.28125 3.71875 2.203125 C 3.71875 2.125 3.65625 2.078125 3.59375 2.046875 L 1.34375 1 C 1.28125 0.953125 1.25 0.953125 1.234375 0.953125 C 1.203125 0.953125 1.171875 0.96875 1.140625 0.984375 L -1.109375 2.046875 C -1.1875 2.078125 -1.234375 2.109375 -1.234375 2.203125 C -1.234375 2.28125 -1.171875 2.34375 -1.09375 2.34375 C -1.0625 2.34375 -1.046875 2.328125 -1 2.3125 L 1.234375 1.25 Z M 3.46875 2.296875 "/>
</g>
<g id="glyph-6-1">
<path d="M 1.125 1.96875 C 1.203125 2 1.234375 2 1.234375 2 C 1.265625 2 1.296875 1.984375 1.328125 1.96875 L 3.578125 0.90625 C 3.65625 0.875 3.71875 0.84375 3.71875 0.765625 C 3.71875 0.6875 3.65625 0.625 3.578125 0.625 C 3.546875 0.625 3.515625 0.640625 3.484375 0.65625 L 1.234375 1.703125 L -0.984375 0.65625 C -1.0625 0.625 -1.09375 0.625 -1.09375 0.625 C -1.171875 0.625 -1.234375 0.6875 -1.234375 0.765625 C -1.234375 0.84375 -1.171875 0.875 -1.109375 0.90625 Z M 1.125 1.96875 "/>
</g>
<g id="glyph-7-0">
<path d="M 1.609375 2.859375 C 1.703125 2.890625 1.890625 2.9375 1.921875 2.9375 C 2 2.9375 2.09375 2.875 2.09375 2.75 C 2.09375 2.671875 2.03125 2.546875 1.890625 2.5 C 2.015625 2.40625 2.1875 2.21875 2.1875 1.90625 C 2.1875 1.21875 1.515625 0.515625 0.8125 0.515625 C 0.296875 0.515625 -0.046875 0.890625 -0.046875 1.390625 C -0.046875 1.796875 0.234375 2.109375 0.296875 2.171875 C 0.046875 2.265625 -0.046875 2.53125 -0.046875 2.75 C -0.046875 2.953125 0.0625 3.078125 0.21875 3.1875 C 0.421875 3.3125 0.671875 3.390625 0.71875 3.390625 C 0.78125 3.390625 0.78125 3.296875 0.78125 3.28125 C 0.78125 3.1875 0.75 3.1875 0.671875 3.171875 C 0.3125 3.078125 0.109375 2.953125 0.109375 2.78125 C 0.109375 2.640625 0.21875 2.578125 0.375 2.578125 C 0.453125 2.578125 0.640625 2.625 0.765625 2.65625 Z M 0.65625 2.203125 C 0.578125 2.171875 0.578125 2.171875 0.46875 2.09375 C 0.265625 1.90625 0.109375 1.65625 0.109375 1.40625 C 0.109375 1.234375 0.203125 0.96875 0.625 0.96875 C 0.84375 0.96875 1.359375 1.078125 1.625 1.265625 C 1.890625 1.453125 2.015625 1.703125 2.015625 1.90625 C 2.015625 2.140625 1.890625 2.34375 1.59375 2.421875 Z M 0.65625 2.203125 "/>
</g>
<g id="glyph-7-1">
<path d="M 0.0625 1.34375 C -0.40625 1.34375 -0.671875 1.078125 -0.78125 0.953125 C -0.828125 0.890625 -0.84375 0.890625 -0.875 0.890625 C -0.90625 0.890625 -0.953125 0.9375 -0.953125 0.96875 C -0.953125 1.046875 -0.578125 1.5 0.046875 1.5 C 0.375 1.5 0.609375 1.359375 0.609375 1.140625 C 0.609375 0.953125 0.453125 0.828125 0.296875 0.828125 C 0.140625 0.828125 0 0.953125 0 1.140625 C 0 1.203125 0.015625 1.28125 0.0625 1.34375 Z M 0.0625 1.34375 "/>
</g>
<g id="glyph-7-2">
<path d="M 1.90625 2.546875 C 1.890625 2.46875 1.78125 2.328125 1.609375 2.328125 C 1.484375 2.328125 1.40625 2.421875 1.40625 2.546875 C 1.40625 2.65625 1.5 2.84375 1.75 2.84375 C 2.125 2.84375 2.1875 2.375 2.1875 2.09375 C 2.1875 1.265625 1.5 0.53125 0.84375 0.53125 C 0.421875 0.53125 -0.046875 0.84375 -0.046875 1.59375 C -0.046875 1.6875 -0.046875 2.078125 0.078125 2.421875 C 0.203125 2.75 0.4375 2.953125 0.484375 2.953125 C 0.53125 2.953125 0.59375 2.890625 0.59375 2.84375 C 0.59375 2.8125 0.59375 2.8125 0.515625 2.734375 C 0.265625 2.515625 0.109375 2.09375 0.109375 1.59375 C 0.109375 1.1875 0.34375 0.984375 0.6875 0.984375 C 1.1875 0.984375 2.015625 1.3125 2.015625 2.09375 C 2.015625 2.15625 2.015625 2.390625 1.90625 2.546875 Z M 1.90625 2.546875 "/>
</g>
<g id="glyph-7-3">
<path d="M 3.25 1.5625 C 3.3125 1.578125 3.328125 1.578125 3.359375 1.578125 C 3.4375 1.578125 3.4375 1.5 3.4375 1.421875 L 3.390625 0.8125 C 3.390625 0.734375 3.375 0.71875 3.359375 0.703125 C 3.328125 0.671875 3.28125 0.65625 3.25 0.65625 C 3.15625 0.65625 3.15625 0.75 3.15625 0.8125 C 3.15625 0.8125 3.15625 0.90625 3.15625 0.984375 C 3.140625 1.078125 3.125 1.078125 3.078125 1.078125 C 3.0625 1.078125 2.859375 1.03125 2.75 1 L 1.09375 0.59375 C 0.984375 0.5625 0.90625 0.546875 0.796875 0.546875 C 0.28125 0.546875 -0.046875 0.921875 -0.046875 1.390625 C -0.046875 2.109375 0.640625 2.78125 1.328125 2.78125 C 1.8125 2.78125 2.1875 2.4375 2.1875 1.921875 C 2.1875 1.71875 2.109375 1.46875 1.921875 1.234375 Z M 0.109375 1.40625 C 0.109375 1.1875 0.25 0.953125 0.640625 0.953125 C 0.796875 0.953125 0.953125 0.984375 1.125 1.03125 C 1.1875 1.046875 1.515625 1.125 1.546875 1.125 C 1.59375 1.140625 2.015625 1.484375 2.015625 1.90625 C 2.015625 2.125 1.890625 2.34375 1.515625 2.34375 C 1.328125 2.34375 0.859375 2.25 0.578125 2.09375 C 0.28125 1.921875 0.109375 1.640625 0.109375 1.40625 Z M 0.109375 1.40625 "/>
</g>
<g id="glyph-7-4">
<path d="M 3.25 3.28125 C 3.3125 3.296875 3.328125 3.296875 3.359375 3.296875 C 3.4375 3.296875 3.4375 3.21875 3.4375 3.140625 L 3.390625 2.53125 C 3.390625 2.453125 3.375 2.4375 3.359375 2.421875 C 3.328125 2.390625 3.28125 2.375 3.25 2.375 C 3.15625 2.375 3.15625 2.46875 3.15625 2.53125 C 3.15625 2.53125 3.15625 2.625 3.15625 2.703125 C 3.140625 2.796875 3.125 2.796875 3.078125 2.796875 C 3.0625 2.796875 2.90625 2.765625 2.828125 2.734375 L 1.890625 2.5 C 2.015625 2.40625 2.1875 2.21875 2.1875 1.90625 C 2.1875 1.21875 1.515625 0.515625 0.8125 0.515625 C 0.296875 0.515625 -0.046875 0.890625 -0.046875 1.390625 C -0.046875 1.796875 0.234375 2.109375 0.296875 2.171875 C 0.046875 2.265625 -0.046875 2.53125 -0.046875 2.75 C -0.046875 2.953125 0.0625 3.078125 0.21875 3.1875 C 0.421875 3.3125 0.671875 3.390625 0.71875 3.390625 C 0.78125 3.390625 0.78125 3.296875 0.78125 3.28125 C 0.78125 3.1875 0.75 3.1875 0.671875 3.171875 C 0.3125 3.078125 0.109375 2.953125 0.109375 2.78125 C 0.109375 2.640625 0.21875 2.578125 0.375 2.578125 C 0.4375 2.578125 0.484375 2.578125 0.53125 2.59375 Z M 0.65625 2.203125 C 0.578125 2.171875 0.578125 2.171875 0.46875 2.09375 C 0.265625 1.90625 0.109375 1.65625 0.109375 1.40625 C 0.109375 1.234375 0.203125 0.96875 0.625 0.96875 C 0.84375 0.96875 1.359375 1.078125 1.625 1.265625 C 1.890625 1.453125 2.015625 1.703125 2.015625 1.90625 C 2.015625 2.140625 1.890625 2.34375 1.59375 2.421875 Z M 0.65625 2.203125 "/>
</g>
<g id="glyph-8-0">
<path d="M 2.296875 -3.46875 C 2.34375 -3.53125 2.34375 -3.5625 2.34375 -3.578125 C 2.34375 -3.65625 2.28125 -3.71875 2.203125 -3.71875 C 2.125 -3.71875 2.078125 -3.65625 2.046875 -3.59375 L 1 -1.34375 C 0.953125 -1.28125 0.953125 -1.25 0.953125 -1.234375 C 0.953125 -1.203125 0.96875 -1.171875 0.984375 -1.140625 L 2.046875 1.109375 C 2.078125 1.1875 2.109375 1.234375 2.203125 1.234375 C 2.28125 1.234375 2.34375 1.171875 2.34375 1.09375 C 2.34375 1.0625 2.328125 1.046875 2.3125 1 L 1.25 -1.234375 Z M 2.296875 -3.46875 "/>
</g>
<g id="glyph-8-1">
<path d="M 1.96875 -1.125 C 2 -1.203125 2 -1.234375 2 -1.234375 C 2 -1.265625 1.984375 -1.296875 1.96875 -1.328125 L 0.90625 -3.578125 C 0.875 -3.65625 0.84375 -3.71875 0.765625 -3.71875 C 0.6875 -3.71875 0.625 -3.65625 0.625 -3.578125 C 0.625 -3.546875 0.640625 -3.515625 0.65625 -3.484375 L 1.703125 -1.234375 L 0.65625 0.984375 C 0.625 1.0625 0.625 1.09375 0.625 1.09375 C 0.625 1.171875 0.6875 1.234375 0.765625 1.234375 C 0.84375 1.234375 0.875 1.171875 0.90625 1.109375 Z M 1.96875 -1.125 "/>
</g>
</g>
</defs>
<path fill-rule="nonzero" fill="rgb(97.999573%, 97.999573%, 97.999573%)" fill-opacity="1" stroke-width="0.79701" stroke-linecap="butt" stroke-linejoin="miter" stroke="rgb(0%, 0%, 0%)" stroke-opacity="1" stroke-miterlimit="10" d="M 18.272829 8.503618 L -18.270604 8.503618 C -19.920244 8.503618 -21.259593 7.164268 -21.259593 5.514629 L -21.259593 -5.514387 C -21.259593 -7.164026 -19.920244 -8.503376 -18.270604 -8.503376 L 18.272829 -8.503376 C 19.922468 -8.503376 21.261818 -7.164026 21.261818 -5.514387 L 21.261818 5.514629 C 21.261818 7.164268 19.922468 8.503618 18.272829 8.503618 Z M 18.272829 8.503618 " transform="matrix(0.994536, 0, 0, -0.994536, 63.416862, 33.996214)"/>
<g fill="rgb(0%, 0%, 0%)" fill-opacity="1">
<use xlink:href="#glyph-0-0" x="50.632106" y="35.730685"/>
</g>
<g fill="rgb(0%, 0%, 0%)" fill-opacity="1">
<use xlink:href="#glyph-1-0" x="53.838477" y="35.730685"/>
</g>
<g fill="rgb(0%, 0%, 0%)" fill-opacity="1">
<use xlink:href="#glyph-2-0" x="57.923047" y="36.721242"/>
</g>
<g fill="rgb(0%, 0%, 0%)" fill-opacity="1">
<use xlink:href="#glyph-1-1" x="61.789802" y="35.730685"/>
</g>
<g fill="rgb(0%, 0%, 0%)" fill-opacity="1">
<use xlink:href="#glyph-1-2" x="65.495543" y="35.730685"/>
</g>
<g fill="rgb(0%, 0%, 0%)" fill-opacity="1">
<use xlink:href="#glyph-2-0" x="69.127486" y="36.721242"/>
</g>
<g fill="rgb(0%, 0%, 0%)" fill-opacity="1">
<use xlink:href="#glyph-0-1" x="72.995236" y="35.730685"/>
</g>
<path fill-rule="nonzero" fill="rgb(97.999573%, 97.999573%, 97.999573%)" fill-opacity="1" stroke-width="0.79701" stroke-linecap="butt" stroke-linejoin="miter" stroke="rgb(0%, 0%, 0%)" stroke-opacity="1" stroke-miterlimit="10" d="M 131.658023 8.503618 L 95.11459 8.503618 C 93.464951 8.503618 92.125601 7.164268 92.125601 5.514629 L 92.125601 -5.514387 C 92.125601 -7.164026 93.464951 -8.503376 95.11459 -8.503376 L 131.658023 -8.503376 C 133.307663 -8.503376 134.647012 -7.164026 134.647012 -5.514387 L 134.647012 5.514629 C 134.647012 7.164268 133.307663 8.503618 131.658023 8.503618 Z M 131.658023 8.503618 " transform="matrix(0.994536, 0, 0, -0.994536, 63.416862, 33.996214)"/>
<g fill="rgb(0%, 0%, 0%)" fill-opacity="1">
<use xlink:href="#glyph-0-0" x="163.398532" y="35.730685"/>
</g>
<g fill="rgb(0%, 0%, 0%)" fill-opacity="1">
<use xlink:href="#glyph-1-0" x="166.604903" y="35.730685"/>
</g>
<g fill="rgb(0%, 0%, 0%)" fill-opacity="1">
<use xlink:href="#glyph-2-1" x="170.689474" y="36.721242"/>
</g>
<g fill="rgb(0%, 0%, 0%)" fill-opacity="1">
<use xlink:href="#glyph-1-1" x="174.556228" y="35.730685"/>
</g>
<g fill="rgb(0%, 0%, 0%)" fill-opacity="1">
<use xlink:href="#glyph-1-2" x="178.261969" y="35.730685"/>
</g>
<g fill="rgb(0%, 0%, 0%)" fill-opacity="1">
<use xlink:href="#glyph-2-0" x="181.893913" y="36.721242"/>
</g>
<g fill="rgb(0%, 0%, 0%)" fill-opacity="1">
<use xlink:href="#glyph-0-1" x="185.761662" y="35.730685"/>
</g>
<path fill-rule="nonzero" fill="rgb(97.999573%, 97.999573%, 97.999573%)" fill-opacity="1" stroke-width="0.79701" stroke-linecap="butt" stroke-linejoin="miter" stroke="rgb(0%, 0%, 0%)" stroke-opacity="1" stroke-miterlimit="10" d="M 18.272829 -59.528284 L -18.270604 -59.528284 C -19.920244 -59.528284 -21.259593 -60.867634 -21.259593 -62.517273 L -21.259593 -73.546289 C -21.259593 -75.199855 -19.920244 -76.535278 -18.270604 -76.535278 L 18.272829 -76.535278 C 19.922468 -76.535278 21.261818 -75.199855 21.261818 -73.546289 L 21.261818 -62.517273 C 21.261818 -60.867634 19.922468 -59.528284 18.272829 -59.528284 Z M 18.272829 -59.528284 " transform="matrix(0.994536, 0, 0, -0.994536, 63.416862, 33.996214)"/>
<g fill="rgb(0%, 0%, 0%)" fill-opacity="1">
<use xlink:href="#glyph-0-0" x="50.632106" y="103.389944"/>
</g>
<g fill="rgb(0%, 0%, 0%)" fill-opacity="1">
<use xlink:href="#glyph-1-0" x="53.838477" y="103.389944"/>
</g>
<g fill="rgb(0%, 0%, 0%)" fill-opacity="1">
<use xlink:href="#glyph-2-0" x="57.923047" y="104.380501"/>
</g>
<g fill="rgb(0%, 0%, 0%)" fill-opacity="1">
<use xlink:href="#glyph-1-1" x="61.789802" y="103.389944"/>
</g>
<g fill="rgb(0%, 0%, 0%)" fill-opacity="1">
<use xlink:href="#glyph-1-2" x="65.495543" y="103.389944"/>
</g>
<g fill="rgb(0%, 0%, 0%)" fill-opacity="1">
<use xlink:href="#glyph-2-1" x="69.127486" y="104.380501"/>
</g>
<g fill="rgb(0%, 0%, 0%)" fill-opacity="1">
<use xlink:href="#glyph-0-1" x="72.995236" y="103.389944"/>
</g>
<path fill-rule="nonzero" fill="rgb(97.999573%, 97.999573%, 97.999573%)" fill-opacity="1" stroke-width="0.79701" stroke-linecap="butt" stroke-linejoin="miter" stroke="rgb(0%, 0%, 0%)" stroke-opacity="1" stroke-miterlimit="10" d="M 131.658023 -59.528284 L 95.11459 -59.528284 C 93.464951 -59.528284 92.125601 -60.867634 92.125601 -62.517273 L 92.125601 -73.546289 C 92.125601 -75.199855 93.464951 -76.535278 95.11459 -76.535278 L 131.658023 -76.535278 C 133.307663 -76.535278 134.647012 -75.199855 134.647012 -73.546289 L 134.647012 -62.517273 C 134.647012 -60.867634 133.307663 -59.528284 131.658023 -59.528284 Z M 131.658023 -59.528284 " transform="matrix(0.994536, 0, 0, -0.994536, 63.416862, 33.996214)"/>
<g fill="rgb(0%, 0%, 0%)" fill-opacity="1">
<use xlink:href="#glyph-0-0" x="163.398532" y="103.389944"/>
</g>
<g fill="rgb(0%, 0%, 0%)" fill-opacity="1">
<use xlink:href="#glyph-1-0" x="166.604903" y="103.389944"/>
</g>
<g fill="rgb(0%, 0%, 0%)" fill-opacity="1">
<use xlink:href="#glyph-2-1" x="170.689474" y="104.380501"/>
</g>
<g fill="rgb(0%, 0%, 0%)" fill-opacity="1">
<use xlink:href="#glyph-1-1" x="174.556228" y="103.389944"/>
</g>
<g fill="rgb(0%, 0%, 0%)" fill-opacity="1">
<use xlink:href="#glyph-1-2" x="178.261969" y="103.389944"/>
</g>
<g fill="rgb(0%, 0%, 0%)" fill-opacity="1">
<use xlink:href="#glyph-2-1" x="181.893913" y="104.380501"/>
</g>
<g fill="rgb(0%, 0%, 0%)" fill-opacity="1">
<use xlink:href="#glyph-0-1" x="185.761662" y="103.389944"/>
</g>
<path fill="none" stroke-width="0.79701" stroke-linecap="butt" stroke-linejoin="miter" stroke="rgb(0%, 0%, 0%)" stroke-opacity="1" stroke-miterlimit="10" d="M -35.434707 0.000121234 L -27.834584 0.000121234 " transform="matrix(0.994536, 0, 0, -0.994536, 63.416862, 33.996214)"/>
<path fill-rule="nonzero" fill="rgb(0%, 0%, 0%)" fill-opacity="1" stroke-width="0.79701" stroke-linecap="butt" stroke-linejoin="miter" stroke="rgb(0%, 0%, 0%)" stroke-opacity="1" stroke-miterlimit="10" d="M 4.533526 0.000121234 C 3.975791 0.137591 1.528827 0.919206 0.00094649 1.771519 L 0.00094649 -1.771277 C 1.528827 -0.918963 3.975791 -0.137349 4.533526 0.000121234 Z M 4.533526 0.000121234 " transform="matrix(0.994536, 0, 0, -0.994536, 35.733434, 33.996214)"/>
<path fill="none" stroke-width="0.79701" stroke-linecap="butt" stroke-linejoin="miter" stroke="rgb(0%, 0%, 0%)" stroke-opacity="1" stroke-miterlimit="10" d="M 22.656156 0.000121234 L 84.556899 0.000121234 " transform="matrix(0.994536, 0, 0, -0.994536, 63.416862, 33.996214)"/>
<path fill-rule="nonzero" fill="rgb(0%, 0%, 0%)" fill-opacity="1" stroke-width="0.79701" stroke-linecap="butt" stroke-linejoin="miter" stroke="rgb(0%, 0%, 0%)" stroke-opacity="1" stroke-miterlimit="10" d="M 4.534059 0.000121234 C 3.976324 0.137591 1.529359 0.919206 0.00147941 1.771519 L 0.00147941 -1.771277 C 1.529359 -0.918963 3.976324 -0.137349 4.534059 0.000121234 Z M 4.534059 0.000121234 " transform="matrix(0.994536, 0, 0, -0.994536, 147.510247, 33.996214)"/>
<g fill="rgb(0%, 0%, 0%)" fill-opacity="1">
<use xlink:href="#glyph-3-0" x="117.881616" y="30.627722"/>
</g>
<path fill="none" stroke-width="0.79701" stroke-linecap="butt" stroke-linejoin="miter" stroke="rgb(0%, 0%, 0%)" stroke-opacity="1" stroke-miterlimit="10" d="M 0.00111244 -9.897713 L 0.00111244 -51.955655 " transform="matrix(0.994536, 0, 0, -0.994536, 63.416862, 33.996214)"/>
<path fill-rule="nonzero" fill="rgb(0%, 0%, 0%)" fill-opacity="1" stroke-width="0.79701" stroke-linecap="butt" stroke-linejoin="miter" stroke="rgb(0%, 0%, 0%)" stroke-opacity="1" stroke-miterlimit="10" d="M 4.535742 0.00111244 C 3.978007 0.138582 1.531043 0.920197 -0.000765028 1.772511 L -0.000765028 -1.770286 C 1.531043 -0.9219 3.978007 -0.136357 4.535742 0.00111244 Z M 4.535742 0.00111244 " transform="matrix(0, 0.994536, 0.994536, 0, 63.416862, 85.66873)"/>
<g fill="rgb(0%, 0%, 0%)" fill-opacity="1">
<use xlink:href="#glyph-3-1" x="56.91061" y="69.546888"/>
</g>
<path fill="none" stroke-width="0.79701" stroke-linecap="butt" stroke-linejoin="miter" stroke="rgb(0%, 0%, 0%)" stroke-opacity="1" stroke-miterlimit="10" d="M 110.742956 9.866534 C 107.1491 23.279671 119.623513 23.279671 117.628236 15.832729 " transform="matrix(0.994536, 0, 0, -0.994536, 63.416862, 33.996214)"/>
<path fill-rule="nonzero" fill="rgb(0%, 0%, 0%)" fill-opacity="1" stroke-width="0.79701" stroke-linecap="butt" stroke-linejoin="miter" stroke="rgb(0%, 0%, 0%)" stroke-opacity="1" stroke-miterlimit="10" d="M 4.532846 -0.00174252 C 3.978838 0.138501 1.528502 0.921328 -0.000714723 1.772083 L 0.00187827 -1.773064 C 1.53001 -0.920317 3.975891 -0.1388 4.532846 -0.00174252 Z M 4.532846 -0.00174252 " transform="matrix(-0.257436, 0.960632, 0.960632, 0.257436, 180.402965, 18.251521)"/>
<g fill="rgb(0%, 0%, 0%)" fill-opacity="1">
<use xlink:href="#glyph-3-0" x="174.264829" y="11.050286"/>
</g>
<path fill="none" stroke-width="0.79701" stroke-linecap="butt" stroke-linejoin="miter" stroke="rgb(0%, 0%, 0%)" stroke-opacity="1" stroke-miterlimit="10" d="M 136.009928 6.060581 C 152.533813 10.49104 152.533813 -10.490798 141.976123 -7.658917 " transform="matrix(0.994536, 0, 0, -0.994536, 63.416862, 33.996214)"/>
<path fill-rule="nonzero" fill="rgb(0%, 0%, 0%)" fill-opacity="1" stroke-width="0.79701" stroke-linecap="butt" stroke-linejoin="miter" stroke="rgb(0%, 0%, 0%)" stroke-opacity="1" stroke-miterlimit="10" d="M 4.532161 -0.0000870736 C 3.978132 0.140076 1.528693 0.918755 -0.00166863 1.773083 L 0.00144049 -1.772073 C 1.529452 -0.919101 3.975224 -0.137226 4.532161 -0.0000870736 Z M 4.532161 -0.0000870736 " transform="matrix(-0.960592, -0.257575, -0.257575, 0.960592, 204.615255, 41.612767)"/>
<g fill="rgb(0%, 0%, 0%)" fill-opacity="1">
<use xlink:href="#glyph-3-2" x="214.136761" y="35.063351"/>
</g>
<path fill="none" stroke-width="0.79701" stroke-linecap="butt" stroke-linejoin="miter" stroke="rgb(0%, 0%, 0%)" stroke-opacity="1" stroke-miterlimit="10" d="M 113.386307 -9.897713 L 113.386307 -51.955655 " transform="matrix(0.994536, 0, 0, -0.994536, 63.416862, 33.996214)"/>
<path fill-rule="nonzero" fill="rgb(0%, 0%, 0%)" fill-opacity="1" stroke-width="0.79701" stroke-linecap="butt" stroke-linejoin="miter" stroke="rgb(0%, 0%, 0%)" stroke-opacity="1" stroke-miterlimit="10" d="M 4.535742 -0.000933468 C 3.978007 0.136536 1.531043 0.922079 -0.000765028 1.770465 L -0.000765028 -1.772332 C 1.531043 -0.920018 3.978007 -0.138403 4.535742 -0.000933468 Z M 4.535742 -0.000933468 " transform="matrix(0, 0.994536, 0.994536, 0, 176.184522, 85.66873)"/>
<g fill="rgb(0%, 0%, 0%)" fill-opacity="1">
<use xlink:href="#glyph-3-1" x="169.677036" y="69.546888"/>
</g>
<path fill="none" stroke-width="0.79701" stroke-linecap="butt" stroke-linejoin="miter" stroke="rgb(0%, 0%, 0%)" stroke-opacity="1" stroke-miterlimit="10" d="M 22.656156 -68.031781 L 84.556899 -68.031781 " transform="matrix(0.994536, 0, 0, -0.994536, 63.416862, 33.996214)"/>
<path fill-rule="nonzero" fill="rgb(0%, 0%, 0%)" fill-opacity="1" stroke-width="0.79701" stroke-linecap="butt" stroke-linejoin="miter" stroke="rgb(0%, 0%, 0%)" stroke-opacity="1" stroke-miterlimit="10" d="M 4.534059 0.000389234 C 3.976324 0.137859 1.529359 0.919474 0.00147941 1.771787 L 0.00147941 -1.771009 C 1.529359 -0.918695 3.976324 -0.137081 4.534059 0.000389234 Z M 4.534059 0.000389234 " transform="matrix(0.994536, 0, 0, -0.994536, 147.510247, 101.656637)"/>
<g fill="rgb(0%, 0%, 0%)" fill-opacity="1">
<use xlink:href="#glyph-3-0" x="117.881616" y="107.15824"/>
</g>
<path fill="none" stroke-width="0.79701" stroke-linecap="butt" stroke-linejoin="miter" stroke="rgb(0%, 0%, 0%)" stroke-opacity="1" stroke-miterlimit="10" d="M -22.622509 -74.088313 C -56.636497 -83.20846 -56.636497 -52.855101 -28.588704 -60.37667 " transform="matrix(0.994536, 0, 0, -0.994536, 63.416862, 33.996214)"/>
<path fill-rule="nonzero" fill="rgb(0%, 0%, 0%)" fill-opacity="1" stroke-width="0.79701" stroke-linecap="butt" stroke-linejoin="miter" stroke="rgb(0%, 0%, 0%)" stroke-opacity="1" stroke-miterlimit="10" d="M 4.532923 -0.00191119 C 3.978899 0.138286 1.528476 0.920912 -0.000825965 1.771544 L 0.0010515 -1.769839 C 1.530141 -0.920748 3.975975 -0.139017 4.532923 -0.00191119 Z M 4.532923 -0.00191119 " transform="matrix(0.960602, 0.257515, 0.257515, -0.960602, 34.986, 94.041805)"/>
<g fill="rgb(0%, 0%, 0%)" fill-opacity="1">
<use xlink:href="#glyph-3-1" x="9.279311" y="103.37602"/>
</g>
<path fill="none" stroke-width="0.79701" stroke-linecap="butt" stroke-linejoin="miter" stroke="rgb(0%, 0%, 0%)" stroke-opacity="1" stroke-miterlimit="10" d="M 2.644463 -77.898194 C 6.238319 -91.311331 -6.236094 -91.311331 -4.240817 -83.864388 " transform="matrix(0.994536, 0, 0, -0.994536, 63.416862, 33.996214)"/>
<path fill-rule="nonzero" fill="rgb(0%, 0%, 0%)" fill-opacity="1" stroke-width="0.79701" stroke-linecap="butt" stroke-linejoin="miter" stroke="rgb(0%, 0%, 0%)" stroke-opacity="1" stroke-miterlimit="10" d="M 4.533385 -0.00178325 C 3.975584 0.137444 1.529042 0.921288 -0.000175324 1.772043 L -0.0013762 -1.774122 C 1.53055 -0.920357 3.97643 -0.13884 4.533385 -0.00178325 Z M 4.533385 -0.00178325 " transform="matrix(0.257436, -0.960632, -0.960632, -0.257436, 59.19842, 117.401331)"/>
<g fill="rgb(0%, 0%, 0%)" fill-opacity="1">
<use xlink:href="#glyph-3-3" x="61.584928" y="128.04349"/>
</g>
<path fill="none" stroke-width="0.79701" stroke-linecap="butt" stroke-linejoin="miter" stroke="rgb(0%, 0%, 0%)" stroke-opacity="1" stroke-miterlimit="10" d="M 136.009928 -61.975249 C 152.533813 -57.540862 152.533813 -78.5227 141.976123 -75.690819 " transform="matrix(0.994536, 0, 0, -0.994536, 63.416862, 33.996214)"/>
<path fill-rule="nonzero" fill="rgb(0%, 0%, 0%)" fill-opacity="1" stroke-width="0.79701" stroke-linecap="butt" stroke-linejoin="miter" stroke="rgb(0%, 0%, 0%)" stroke-opacity="1" stroke-miterlimit="10" d="M 4.53223 -0.000345932 C 3.978201 0.139817 1.528762 0.918496 -0.00159922 1.772824 L 0.0015099 -1.772332 C 1.529521 -0.919359 3.975294 -0.137484 4.53223 -0.000345932 Z M 4.53223 -0.000345932 " transform="matrix(-0.960592, -0.257575, -0.257575, 0.960592, 204.615255, 109.273189)"/>
<g fill="rgb(0%, 0%, 0%)" fill-opacity="1">
<use xlink:href="#glyph-3-0" x="214.136761" y="102.894665"/>
<use xlink:href="#glyph-3-4" x="217.973201" y="102.894665"/>
</g>
<g fill="rgb(0%, 0%, 0%)" fill-opacity="1">
<use xlink:href="#glyph-3-1" x="221.46236" y="102.894665"/>
<use xlink:href="#glyph-3-4" x="224.599779" y="102.894665"/>
</g>
<g fill="rgb(0%, 0%, 0%)" fill-opacity="1">
<use xlink:href="#glyph-3-2" x="228.083984" y="102.894665"/>
<use xlink:href="#glyph-3-4" x="231.301164" y="102.894665"/>
</g>
<g fill="rgb(0%, 0%, 0%)" fill-opacity="1">
<use xlink:href="#glyph-3-3" x="234.785369" y="102.894665"/>
</g>
<path fill="none" stroke-width="0.79701" stroke-linecap="butt" stroke-linejoin="miter" stroke="rgb(0%, 0%, 0%)" stroke-opacity="1" stroke-miterlimit="10" d="M 22.593313 -7.784604 C 57.282866 -20.526102 76.611138 -32.686299 98.688808 -54.131607 " transform="matrix(0.994536, 0, 0, -0.994536, 63.416862, 33.996214)"/>
<path fill-rule="nonzero" fill="rgb(0%, 0%, 0%)" fill-opacity="1" stroke-width="0.79701" stroke-linecap="butt" stroke-linejoin="miter" stroke="rgb(0%, 0%, 0%)" stroke-opacity="1" stroke-miterlimit="10" d="M 4.532418 0.000152789 C 3.976107 0.138767 1.529173 0.921429 -0.000100702 1.774125 L 0.00127501 -1.773033 C 1.527486 -0.92017 3.977637 -0.139027 4.532418 0.000152789 Z M 4.532418 0.000152789 " transform="matrix(0.713331, 0.692953, 0.692953, -0.713331, 161.567562, 87.832014)"/>
<g fill="rgb(0%, 0%, 0%)" fill-opacity="1">
<use xlink:href="#glyph-4-0" x="113.603124" y="47.018665"/>
<use xlink:href="#glyph-4-0" x="116.107382" y="48.593841"/>
</g>
<g fill="rgb(0%, 0%, 0%)" fill-opacity="1">
<use xlink:href="#glyph-5-0" x="118.611639" y="50.169017"/>
<use xlink:href="#glyph-5-1" x="121.858956" y="52.211576"/>
</g>
<g fill="rgb(0%, 0%, 0%)" fill-opacity="1">
<use xlink:href="#glyph-5-2" x="124.808126" y="54.066602"/>
</g>
<g fill="rgb(0%, 0%, 0%)" fill-opacity="1">
<use xlink:href="#glyph-4-1" x="127.53547" y="55.782098"/>
</g>
<g fill="rgb(0%, 0%, 0%)" fill-opacity="1">
<use xlink:href="#glyph-5-1" x="130.039727" y="57.357274"/>
</g>
<g fill="rgb(0%, 0%, 0%)" fill-opacity="1">
<use xlink:href="#glyph-4-0" x="132.988898" y="59.2123"/>
</g>
<g fill="rgb(0%, 0%, 0%)" fill-opacity="1">
<use xlink:href="#glyph-5-3" x="135.493156" y="60.787476"/>
<use xlink:href="#glyph-5-1" x="138.148793" y="62.457869"/>
</g>
<g fill="rgb(0%, 0%, 0%)" fill-opacity="1">
<use xlink:href="#glyph-5-4" x="141.097964" y="64.312895"/>
</g>
<g fill="rgb(0%, 0%, 0%)" fill-opacity="1">
<use xlink:href="#glyph-4-1" x="144.199771" y="66.263929"/>
<use xlink:href="#glyph-4-1" x="146.704029" y="67.839105"/>
</g>
<path fill="none" stroke-width="0.79701" stroke-linecap="butt" stroke-linejoin="miter" stroke="rgb(0%, 0%, 0%)" stroke-opacity="1" stroke-miterlimit="10" d="M 116.214259 -9.858436 C 121.335996 -27.729526 121.335996 -40.302133 117.914959 -52.234523 " transform="matrix(0.994536, 0, 0, -0.994536, 63.416862, 33.996214)"/>
<path fill-rule="nonzero" fill="rgb(0%, 0%, 0%)" fill-opacity="1" stroke-width="0.79701" stroke-linecap="butt" stroke-linejoin="miter" stroke="rgb(0%, 0%, 0%)" stroke-opacity="1" stroke-miterlimit="10" d="M 4.535602 0.000113111 C 3.977061 0.138245 1.53011 0.919872 -0.0013304 1.77196 L 0.000928233 -1.770031 C 1.530224 -0.918835 3.978941 -0.13907 4.535602 0.000113111 Z M 4.535602 0.000113111 " transform="matrix(-0.274114, 0.955988, 0.955988, 0.274114, 180.688476, 85.94524)"/>
<g fill="rgb(0%, 0%, 0%)" fill-opacity="1">
<use xlink:href="#glyph-6-0" x="187.354909" y="46.792905"/>
<use xlink:href="#glyph-6-0" x="187.354909" y="49.751482"/>
</g>
<g fill="rgb(0%, 0%, 0%)" fill-opacity="1">
<use xlink:href="#glyph-7-0" x="187.354909" y="52.710059"/>
<use xlink:href="#glyph-7-1" x="187.354909" y="56.5465"/>
</g>
<g fill="rgb(0%, 0%, 0%)" fill-opacity="1">
<use xlink:href="#glyph-7-2" x="187.354909" y="60.035659"/>
</g>
<g fill="rgb(0%, 0%, 0%)" fill-opacity="1">
<use xlink:href="#glyph-6-1" x="187.354909" y="63.252839"/>
</g>
<g fill="rgb(0%, 0%, 0%)" fill-opacity="1">
<use xlink:href="#glyph-7-1" x="187.354909" y="66.211416"/>
</g>
<g fill="rgb(0%, 0%, 0%)" fill-opacity="1">
<use xlink:href="#glyph-6-0" x="187.354909" y="69.695621"/>
</g>
<g fill="rgb(0%, 0%, 0%)" fill-opacity="1">
<use xlink:href="#glyph-7-3" x="187.354909" y="72.654198"/>
<use xlink:href="#glyph-7-1" x="187.354909" y="75.791617"/>
</g>
<g fill="rgb(0%, 0%, 0%)" fill-opacity="1">
<use xlink:href="#glyph-7-4" x="187.354909" y="79.275822"/>
</g>
<g fill="rgb(0%, 0%, 0%)" fill-opacity="1">
<use xlink:href="#glyph-6-1" x="187.354909" y="82.940356"/>
<use xlink:href="#glyph-6-1" x="187.354909" y="85.898933"/>
</g>
<path fill="none" stroke-width="0.79701" stroke-linecap="butt" stroke-linejoin="miter" stroke="rgb(0%, 0%, 0%)" stroke-opacity="1" stroke-miterlimit="10" d="M 22.624734 -73.668048 C 48.170574 -80.038797 65.212917 -80.038797 84.768996 -75.164506 " transform="matrix(0.994536, 0, 0, -0.994536, 63.416862, 33.996214)"/>
<path fill-rule="nonzero" fill="rgb(0%, 0%, 0%)" fill-opacity="1" stroke-width="0.79701" stroke-linecap="butt" stroke-linejoin="miter" stroke="rgb(0%, 0%, 0%)" stroke-opacity="1" stroke-miterlimit="10" d="M 4.5345 0.00118375 C 3.977123 0.136082 1.529302 0.920353 0.000719686 1.770973 L 0.000241354 -1.770888 C 1.527681 -0.921072 3.977308 -0.139227 4.5345 0.00118375 Z M 4.5345 0.00118375 " transform="matrix(0.964988, -0.240558, -0.240558, -0.964988, 147.722203, 108.748204)"/>
<g fill="rgb(0%, 0%, 0%)" fill-opacity="1">
<use xlink:href="#glyph-8-0" x="98.76664" y="119.036974"/>
<use xlink:href="#glyph-8-0" x="101.725217" y="119.036974"/>
</g>
<g fill="rgb(0%, 0%, 0%)" fill-opacity="1">
<use xlink:href="#glyph-3-0" x="104.683794" y="119.036974"/>
<use xlink:href="#glyph-3-4" x="108.520234" y="119.036974"/>
</g>
<g fill="rgb(0%, 0%, 0%)" fill-opacity="1">
<use xlink:href="#glyph-3-2" x="112.004439" y="119.036974"/>
</g>
<g fill="rgb(0%, 0%, 0%)" fill-opacity="1">
<use xlink:href="#glyph-8-1" x="115.221619" y="119.036974"/>
</g>
<g fill="rgb(0%, 0%, 0%)" fill-opacity="1">
<use xlink:href="#glyph-3-4" x="118.180196" y="119.036974"/>
</g>
<g fill="rgb(0%, 0%, 0%)" fill-opacity="1">
<use xlink:href="#glyph-8-0" x="121.669355" y="119.036974"/>
</g>
<g fill="rgb(0%, 0%, 0%)" fill-opacity="1">
<use xlink:href="#glyph-3-1" x="124.627932" y="119.036974"/>
<use xlink:href="#glyph-3-4" x="127.765352" y="119.036974"/>
</g>
<g fill="rgb(0%, 0%, 0%)" fill-opacity="1">
<use xlink:href="#glyph-3-3" x="131.249557" y="119.036974"/>
</g>
<g fill="rgb(0%, 0%, 0%)" fill-opacity="1">
<use xlink:href="#glyph-8-1" x="134.91409" y="119.036974"/>
<use xlink:href="#glyph-8-1" x="137.872667" y="119.036974"/>
</g>
<path fill="none" stroke-width="0.79701" stroke-linecap="butt" stroke-linejoin="miter" stroke="rgb(0%, 0%, 0%)" stroke-opacity="1" stroke-miterlimit="10" d="M 116.029657 -77.898194 C 119.623513 -91.311331 107.1491 -91.311331 109.144377 -83.864388 " transform="matrix(0.994536, 0, 0, -0.994536, 63.416862, 33.996214)"/>
<path fill-rule="nonzero" fill="rgb(0%, 0%, 0%)" fill-opacity="1" stroke-width="0.79701" stroke-linecap="butt" stroke-linejoin="miter" stroke="rgb(0%, 0%, 0%)" stroke-opacity="1" stroke-miterlimit="10" d="M 4.532861 0.000173617 C 3.975059 0.139401 1.529534 0.919451 0.000316967 1.770206 L -0.00190061 -1.772165 C 1.530025 -0.918401 3.975906 -0.136883 4.532861 0.000173617 Z M 4.532861 0.000173617 " transform="matrix(0.257436, -0.960632, -0.960632, -0.257436, 171.96606, 117.401331)"/>
<g fill="rgb(0%, 0%, 0%)" fill-opacity="1">
<use xlink:href="#glyph-8-0" x="155.149853" y="128.317981"/>
<use xlink:href="#glyph-8-0" x="158.10843" y="128.317981"/>
</g>
<g fill="rgb(0%, 0%, 0%)" fill-opacity="1">
<use xlink:href="#glyph-3-0" x="161.067007" y="128.317981"/>
<use xlink:href="#glyph-3-4" x="164.903447" y="128.317981"/>
</g>
<g fill="rgb(0%, 0%, 0%)" fill-opacity="1">
<use xlink:href="#glyph-3-2" x="168.387652" y="128.317981"/>
</g>
<g fill="rgb(0%, 0%, 0%)" fill-opacity="1">
<use xlink:href="#glyph-8-1" x="171.604832" y="128.317981"/>
</g>
<g fill="rgb(0%, 0%, 0%)" fill-opacity="1">
<use xlink:href="#glyph-3-4" x="174.563409" y="128.317981"/>
</g>
<g fill="rgb(0%, 0%, 0%)" fill-opacity="1">
<use xlink:href="#glyph-8-0" x="178.052568" y="128.317981"/>
</g>
<g fill="rgb(0%, 0%, 0%)" fill-opacity="1">
<use xlink:href="#glyph-3-1" x="181.011145" y="128.317981"/>
<use xlink:href="#glyph-3-4" x="184.148565" y="128.317981"/>
</g>
<g fill="rgb(0%, 0%, 0%)" fill-opacity="1">
<use xlink:href="#glyph-3-3" x="187.63277" y="128.317981"/>
</g>
<g fill="rgb(0%, 0%, 0%)" fill-opacity="1">
<use xlink:href="#glyph-8-1" x="191.297303" y="128.317981"/>
<use xlink:href="#glyph-8-1" x="194.25588" y="128.317981"/>
</g>
</svg>
