<?xml version="1.0" encoding="UTF-8"?>
<svg xmlns="http://www.w3.org/2000/svg" xmlns:xlink="http://www.w3.org/1999/xlink" width="248.364" height="140.55" viewBox="0 0 248.364 140.55">
<defs>
<g>
<g id="glyph-0-0">
<path d="M 2.625 -4.90625 C 2.671875 -5 2.671875 -5.015625 2.671875 -5.046875 C 2.671875 -5.15625 2.578125 -5.21875 2.5 -5.21875 C 2.390625 -5.21875 2.359375 -5.140625 2.3125 -5.046875 L 1 -1.875 C 0.953125 -1.78125 0.953125 -1.765625 0.953125 -1.75 C 0.953125 -1.703125 0.953125 -1.703125 1 -1.609375 L 2.3125 1.546875 C 2.34375 1.65625 2.390625 1.734375 2.5 1.734375 C 2.578125 1.734375 2.671875 1.671875 2.671875 1.5625 C 2.671875 1.53125 2.671875 1.515625 2.625 1.421875 L 1.3125 -1.734375 Z M 2.625 -4.90625 "/>
</g>
<g id="glyph-0-1">
<path d="M 2.203125 -1.609375 C 2.25 -1.703125 2.25 -1.71875 2.25 -1.734375 C 2.25 -1.765625 2.25 -1.78125 2.203125 -1.875 L 0.890625 -5.03125 C 0.859375 -5.140625 0.8125 -5.21875 0.703125 -5.21875 C 0.625 -5.21875 0.53125 -5.15625 0.53125 -5.046875 C 0.53125 -5.015625 0.53125 -5 0.578125 -4.90625 L 1.890625 -1.75 L 0.578125 1.421875 C 0.53125 1.515625 0.53125 1.53125 0.53125 1.5625 C 0.53125 1.671875 0.625 1.734375 0.703125 1.734375 C 0.828125 1.734375 0.84375 1.65625 0.890625 1.5625 Z M 2.203125 -1.609375 "/>
</g>
<g id="glyph-1-0">
<path d="M 0.515625 0.84375 C 0.46875 1.046875 0.453125 1.09375 0.1875 1.09375 C 0.09375 1.09375 0 1.09375 0 1.25 C 0 1.328125 0.0625 1.34375 0.09375 1.34375 C 0.265625 1.34375 0.5 1.328125 0.6875 1.328125 C 0.921875 1.328125 1.1875 1.34375 1.421875 1.34375 C 1.484375 1.34375 1.5625 1.328125 1.5625 1.203125 C 1.5625 1.09375 1.453125 1.09375 1.375 1.09375 C 1.21875 1.09375 1.03125 1.09375 1.03125 1.015625 C 1.03125 0.984375 1.078125 0.796875 1.109375 0.703125 C 1.203125 0.328125 1.296875 -0.046875 1.375 -0.34375 C 1.453125 -0.203125 1.671875 0.0625 2.09375 0.0625 C 2.9375 0.0625 3.875 -0.875 3.875 -1.90625 C 3.875 -2.71875 3.3125 -3.0625 2.828125 -3.0625 C 2.40625 -3.0625 2.03125 -2.78125 1.84375 -2.578125 C 1.71875 -2.96875 1.328125 -3.0625 1.125 -3.0625 C 0.859375 -3.0625 0.6875 -2.890625 0.578125 -2.703125 C 0.4375 -2.46875 0.328125 -2.046875 0.328125 -2 C 0.328125 -1.90625 0.421875 -1.90625 0.4375 -1.90625 C 0.546875 -1.90625 0.546875 -1.9375 0.59375 -2.125 C 0.703125 -2.53125 0.828125 -2.875 1.109375 -2.875 C 1.28125 -2.875 1.328125 -2.71875 1.328125 -2.53125 C 1.328125 -2.453125 1.328125 -2.359375 1.3125 -2.328125 Z M 1.828125 -2.234375 C 2.234375 -2.765625 2.59375 -2.875 2.8125 -2.875 C 3.078125 -2.875 3.3125 -2.671875 3.3125 -2.203125 C 3.3125 -1.90625 3.15625 -1.203125 2.953125 -0.796875 C 2.78125 -0.453125 2.4375 -0.125 2.09375 -0.125 C 1.59375 -0.125 1.46875 -0.65625 1.46875 -0.734375 C 1.46875 -0.765625 1.484375 -0.8125 1.484375 -0.828125 Z M 1.828125 -2.234375 "/>
</g>
<g id="glyph-1-1">
<path d="M 1.46875 -0.109375 C 1.46875 0.265625 1.390625 0.71875 0.921875 1.15625 C 0.890625 1.1875 0.875 1.203125 0.875 1.25 C 0.875 1.296875 0.9375 1.34375 0.96875 1.34375 C 1.078125 1.34375 1.65625 0.78125 1.65625 -0.046875 C 1.65625 -0.46875 1.5 -0.796875 1.171875 -0.796875 C 0.953125 -0.796875 0.78125 -0.625 0.78125 -0.40625 C 0.78125 -0.1875 0.9375 0 1.1875 0 C 1.34375 0 1.453125 -0.109375 1.46875 -0.109375 Z M 1.46875 -0.109375 "/>
</g>
<g id="glyph-1-2">
<path d="M 3.546875 -2.859375 C 3.546875 -2.890625 3.546875 -2.9375 3.546875 -2.96875 C 3.546875 -3.015625 3.53125 -3.0625 3.46875 -3.0625 C 3.390625 -3.0625 3.09375 -2.828125 2.96875 -2.609375 C 2.890625 -2.75 2.65625 -3.0625 2.21875 -3.0625 C 1.328125 -3.0625 0.421875 -2.09375 0.421875 -1.078125 C 0.421875 -0.40625 0.875 0.0625 1.46875 0.0625 C 1.875 0.0625 2.203125 -0.1875 2.34375 -0.3125 C 2.34375 -0.296875 2.125 0.578125 2.09375 0.703125 C 2 1.078125 2 1.09375 1.5625 1.09375 C 1.484375 1.09375 1.390625 1.09375 1.390625 1.25 C 1.390625 1.296875 1.421875 1.34375 1.484375 1.34375 C 1.71875 1.34375 1.96875 1.328125 2.21875 1.328125 C 2.453125 1.328125 2.734375 1.34375 2.953125 1.34375 C 3.015625 1.34375 3.09375 1.328125 3.09375 1.203125 C 3.09375 1.09375 3 1.09375 2.90625 1.09375 C 2.765625 1.09375 2.578125 1.09375 2.578125 1.015625 C 2.578125 1 2.578125 0.984375 2.609375 0.859375 Z M 2.484375 -0.875 C 2.453125 -0.765625 2.453125 -0.75 2.359375 -0.625 C 2.09375 -0.3125 1.765625 -0.125 1.5 -0.125 C 1.234375 -0.125 0.984375 -0.3125 0.984375 -0.796875 C 0.984375 -1.171875 1.1875 -1.9375 1.34375 -2.21875 C 1.671875 -2.765625 2.015625 -2.875 2.21875 -2.875 C 2.703125 -2.875 2.84375 -2.34375 2.84375 -2.265625 C 2.84375 -2.234375 2.828125 -2.1875 2.8125 -2.15625 Z M 2.484375 -0.875 "/>
</g>
<g id="glyph-2-0">
<path d="M 2.984375 -1.59375 C 2.984375 -1.953125 2.984375 -3.3125 1.6875 -3.3125 C 0.390625 -3.3125 0.390625 -1.953125 0.390625 -1.59375 C 0.390625 -1.234375 0.390625 0.109375 1.6875 0.109375 C 2.984375 0.109375 2.984375 -1.234375 2.984375 -1.59375 Z M 1.6875 -0.046875 C 1.5 -0.046875 1.09375 -0.125 0.96875 -0.625 C 0.890625 -0.890625 0.890625 -1.234375 0.890625 -1.65625 C 0.890625 -2.015625 0.890625 -2.359375 0.96875 -2.640625 C 1.09375 -3.0625 1.46875 -3.140625 1.6875 -3.140625 C 2.0625 -3.140625 2.328125 -2.953125 2.421875 -2.609375 C 2.484375 -2.359375 2.484375 -1.9375 2.484375 -1.65625 C 2.484375 -1.3125 2.484375 -0.90625 2.421875 -0.609375 C 2.28125 -0.125 1.890625 -0.046875 1.6875 -0.046875 Z M 1.6875 -0.046875 "/>
</g>
<g id="glyph-2-1">
<path d="M 1.984375 -3.15625 C 1.984375 -3.3125 1.96875 -3.3125 1.796875 -3.3125 C 1.453125 -2.984375 0.890625 -2.984375 0.796875 -2.984375 L 0.703125 -2.984375 L 0.703125 -2.765625 L 0.796875 -2.765625 C 0.90625 -2.765625 1.234375 -2.78125 1.515625 -2.90625 L 1.515625 -0.421875 C 1.515625 -0.265625 1.515625 -0.21875 1 -0.21875 L 0.75 -0.21875 L 0.75 0 C 1.015625 -0.015625 1.453125 -0.015625 1.75 -0.015625 C 2.03125 -0.015625 2.484375 -0.015625 2.75 0 L 2.75 -0.21875 L 2.5 -0.21875 C 1.984375 -0.21875 1.984375 -0.265625 1.984375 -0.421875 Z M 1.984375 -3.15625 "/>
</g>
<g id="glyph-3-0">
<path d="M 2.875 -1.609375 C 2.890625 -1.71875 2.953125 -1.890625 2.953125 -1.921875 C 2.953125 -2 2.875 -2.09375 2.765625 -2.09375 C 2.671875 -2.09375 2.546875 -2.03125 2.515625 -1.890625 C 2.421875 -2.03125 2.234375 -2.203125 1.921875 -2.203125 C 1.21875 -2.203125 0.515625 -1.515625 0.515625 -0.8125 C 0.515625 -0.296875 0.890625 0.046875 1.390625 0.046875 C 1.796875 0.046875 2.109375 -0.234375 2.171875 -0.296875 C 2.265625 -0.046875 2.53125 0.046875 2.765625 0.046875 C 2.96875 0.046875 3.09375 -0.0625 3.203125 -0.21875 C 3.328125 -0.421875 3.40625 -0.6875 3.40625 -0.71875 C 3.40625 -0.78125 3.3125 -0.78125 3.296875 -0.78125 C 3.203125 -0.78125 3.203125 -0.75 3.171875 -0.671875 C 3.078125 -0.3125 2.953125 -0.109375 2.78125 -0.109375 C 2.640625 -0.109375 2.578125 -0.21875 2.578125 -0.375 C 2.578125 -0.453125 2.640625 -0.640625 2.65625 -0.78125 Z M 2.203125 -0.65625 C 2.1875 -0.59375 2.1875 -0.578125 2.09375 -0.484375 C 1.90625 -0.265625 1.65625 -0.109375 1.40625 -0.109375 C 1.234375 -0.109375 0.96875 -0.203125 0.96875 -0.625 C 0.96875 -0.84375 1.09375 -1.375 1.265625 -1.625 C 1.453125 -1.90625 1.703125 -2.03125 1.921875 -2.03125 C 2.140625 -2.03125 2.359375 -1.890625 2.4375 -1.59375 Z M 2.203125 -0.65625 "/>
</g>
<g id="glyph-3-1">
<path d="M 1.5625 -3.265625 C 1.578125 -3.328125 1.578125 -3.34375 1.578125 -3.359375 C 1.578125 -3.453125 1.515625 -3.453125 1.4375 -3.4375 L 0.8125 -3.40625 C 0.734375 -3.390625 0.71875 -3.390625 0.703125 -3.375 C 0.6875 -3.34375 0.671875 -3.28125 0.671875 -3.25 C 0.671875 -3.171875 0.75 -3.171875 0.8125 -3.171875 C 0.8125 -3.171875 0.90625 -3.171875 0.984375 -3.15625 C 1.078125 -3.15625 1.078125 -3.140625 1.078125 -3.09375 C 1.078125 -3.0625 1.03125 -2.875 1 -2.765625 L 0.59375 -1.09375 C 0.5625 -1 0.546875 -0.921875 0.546875 -0.8125 C 0.546875 -0.28125 0.921875 0.046875 1.390625 0.046875 C 2.109375 0.046875 2.796875 -0.640625 2.796875 -1.328125 C 2.796875 -1.828125 2.4375 -2.203125 1.921875 -2.203125 C 1.71875 -2.203125 1.46875 -2.109375 1.234375 -1.921875 Z M 1.40625 -0.109375 C 1.1875 -0.109375 0.953125 -0.25 0.953125 -0.640625 C 0.953125 -0.8125 0.984375 -0.96875 1.03125 -1.140625 C 1.046875 -1.1875 1.125 -1.515625 1.140625 -1.546875 C 1.140625 -1.59375 1.5 -2.03125 1.90625 -2.03125 C 2.125 -2.03125 2.34375 -1.890625 2.34375 -1.515625 C 2.34375 -1.34375 2.25 -0.875 2.09375 -0.578125 C 1.921875 -0.28125 1.65625 -0.109375 1.40625 -0.109375 Z M 1.40625 -0.109375 "/>
</g>
<g id="glyph-3-2">
<path d="M 2.5625 -1.921875 C 2.46875 -1.890625 2.328125 -1.78125 2.328125 -1.625 C 2.328125 -1.484375 2.421875 -1.421875 2.546875 -1.421875 C 2.671875 -1.421875 2.859375 -1.515625 2.859375 -1.765625 C 2.859375 -2.125 2.375 -2.203125 2.109375 -2.203125 C 1.265625 -2.203125 0.53125 -1.515625 0.53125 -0.84375 C 0.53125 -0.421875 0.84375 0.046875 1.59375 0.046875 C 1.6875 0.046875 2.09375 0.046875 2.421875 -0.078125 C 2.765625 -0.203125 2.96875 -0.4375 2.96875 -0.484375 C 2.96875 -0.53125 2.890625 -0.59375 2.859375 -0.59375 C 2.828125 -0.59375 2.828125 -0.59375 2.75 -0.515625 C 2.515625 -0.265625 2.109375 -0.109375 1.609375 -0.109375 C 1.1875 -0.109375 0.984375 -0.34375 0.984375 -0.6875 C 0.984375 -1.203125 1.3125 -2.03125 2.109375 -2.03125 C 2.15625 -2.03125 2.40625 -2.03125 2.5625 -1.921875 Z M 2.5625 -1.921875 "/>
</g>
<g id="glyph-3-3">
<path d="M 3.296875 -3.265625 C 3.3125 -3.328125 3.3125 -3.34375 3.3125 -3.359375 C 3.3125 -3.453125 3.234375 -3.453125 3.15625 -3.4375 L 2.546875 -3.40625 C 2.453125 -3.390625 2.453125 -3.390625 2.421875 -3.375 C 2.40625 -3.34375 2.390625 -3.28125 2.390625 -3.25 C 2.390625 -3.171875 2.46875 -3.171875 2.53125 -3.171875 C 2.546875 -3.171875 2.640625 -3.171875 2.703125 -3.15625 C 2.796875 -3.15625 2.8125 -3.140625 2.8125 -3.09375 C 2.8125 -3.078125 2.765625 -2.921875 2.75 -2.828125 L 2.515625 -1.890625 C 2.421875 -2.03125 2.234375 -2.203125 1.921875 -2.203125 C 1.21875 -2.203125 0.515625 -1.515625 0.515625 -0.8125 C 0.515625 -0.296875 0.890625 0.046875 1.390625 0.046875 C 1.796875 0.046875 2.109375 -0.234375 2.171875 -0.296875 C 2.265625 -0.046875 2.53125 0.046875 2.765625 0.046875 C 2.96875 0.046875 3.09375 -0.0625 3.203125 -0.21875 C 3.328125 -0.421875 3.40625 -0.6875 3.40625 -0.71875 C 3.40625 -0.78125 3.3125 -0.78125 3.296875 -0.78125 C 3.203125 -0.78125 3.203125 -0.75 3.171875 -0.671875 C 3.078125 -0.3125 2.953125 -0.109375 2.78125 -0.109375 C 2.640625 -0.109375 2.578125 -0.21875 2.578125 -0.375 C 2.578125 -0.4375 2.59375 -0.484375 2.609375 -0.53125 Z M 2.203125 -0.65625 C 2.1875 -0.59375 2.1875 -0.578125 2.09375 -0.484375 C 1.90625 -0.265625 1.65625 -0.109375 1.40625 -0.109375 C 1.234375 -0.109375 0.96875 -0.203125 0.96875 -0.625 C 0.96875 -0.84375 1.09375 -1.375 1.265625 -1.625 C 1.453125 -1.90625 1.703125 -2.03125 1.921875 -2.03125 C 2.140625 -2.03125 2.359375 -1.890625 2.4375 -1.59375 Z M 2.203125 -0.65625 "/>
</g>
<g id="glyph-3-4">
<path d="M 1.34375 -0.0625 C 1.34375 0.40625 1.078125 0.6875 0.953125 0.796875 C 0.90625 0.828125 0.890625 0.84375 0.890625 0.875 C 0.890625 0.90625 0.9375 0.96875 0.984375 0.96875 C 1.046875 0.96875 1.515625 0.578125 1.515625 -0.046875 C 1.515625 -0.375 1.359375 -0.609375 1.140625 -0.609375 C 0.953125 -0.609375 0.828125 -0.453125 0.828125 -0.296875 C 0.828125 -0.140625 0.953125 0 1.140625 0 C 1.21875 0 1.28125 -0.015625 1.34375 -0.0625 Z M 1.34375 -0.0625 "/>
</g>
<g id="glyph-4-0">
<path d="M 2.3125 -3.484375 C 2.34375 -3.546875 2.34375 -3.578125 2.34375 -3.59375 C 2.34375 -3.65625 2.28125 -3.71875 2.203125 -3.71875 C 2.125 -3.71875 2.09375 -3.671875 2.0625 -3.609375 L 1 -1.34375 C 0.96875 -1.28125 0.96875 -1.25 0.96875 -1.234375 C 0.96875 -1.203125 0.984375 -1.1875 1 -1.140625 L 2.0625 1.109375 C 2.09375 1.1875 2.125 1.234375 2.203125 1.234375 C 2.28125 1.234375 2.34375 1.171875 2.34375 1.109375 C 2.34375 1.0625 2.328125 1.046875 2.3125 1.015625 L 1.25 -1.234375 Z M 2.3125 -3.484375 "/>
</g>
<g id="glyph-4-1">
<path d="M 1.96875 -1.140625 C 2 -1.203125 2 -1.234375 2 -1.234375 C 2 -1.28125 1.984375 -1.296875 1.96875 -1.34375 L 0.90625 -3.59375 C 0.875 -3.671875 0.84375 -3.71875 0.765625 -3.71875 C 0.6875 -3.71875 0.625 -3.65625 0.625 -3.59375 C 0.625 -3.546875 0.640625 -3.53125 0.65625 -3.5 L 1.703125 -1.234375 L 0.65625 1 C 0.625 1.0625 0.625 1.09375 0.625 1.109375 C 0.625 1.171875 0.6875 1.234375 0.765625 1.234375 C 0.84375 1.234375 0.875 1.1875 0.90625 1.125 Z M 1.96875 -1.140625 "/>
</g>
<g id="glyph-5-0">
<path d="M 3.8125 -1.71875 C 3.875 -1.75 3.890625 -1.78125 3.890625 -1.796875 C 3.9375 -1.84375 3.921875 -1.921875 3.84375 -1.96875 C 3.78125 -2.015625 3.71875 -2 3.671875 -1.96875 L 1.5625 -0.609375 C 1.5 -0.5625 1.484375 -0.546875 1.46875 -0.53125 C 1.453125 -0.5 1.453125 -0.46875 1.453125 -0.4375 L 1.15625 2.03125 C 1.140625 2.109375 1.140625 2.171875 1.203125 2.21875 C 1.28125 2.265625 1.359375 2.234375 1.390625 2.1875 C 1.421875 2.15625 1.40625 2.125 1.40625 2.09375 L 1.71875 -0.375 Z M 3.8125 -1.71875 "/>
</g>
<g id="glyph-5-1">
<path d="M 2.28125 0.078125 C 2.328125 0.046875 2.34375 0.015625 2.34375 0.015625 C 2.375 -0.015625 2.375 -0.03125 2.390625 -0.09375 L 2.671875 -2.5625 C 2.6875 -2.640625 2.703125 -2.6875 2.625 -2.734375 C 2.5625 -2.78125 2.484375 -2.765625 2.4375 -2.71875 C 2.421875 -2.671875 2.421875 -2.640625 2.421875 -2.625 L 2.09375 -0.140625 L 0.03125 1.1875 C -0.03125 1.234375 -0.046875 1.25 -0.0625 1.265625 C -0.09375 1.3125 -0.078125 1.40625 -0.015625 1.453125 C 0.0625 1.5 0.109375 1.46875 0.171875 1.4375 Z M 2.28125 0.078125 "/>
</g>
<g id="glyph-6-0">
<path d="M 3.296875 0.171875 C 3.375 0.078125 3.5 -0.015625 3.515625 -0.046875 C 3.5625 -0.109375 3.546875 -0.234375 3.453125 -0.296875 C 3.375 -0.34375 3.234375 -0.359375 3.125 -0.25 C 3.125 -0.421875 3.0625 -0.671875 2.796875 -0.84375 C 2.203125 -1.203125 1.25 -1 0.875 -0.40625 C 0.59375 0.03125 0.71875 0.515625 1.140625 0.78125 C 1.484375 1 1.90625 0.921875 2 0.90625 C 1.953125 1.15625 2.109375 1.390625 2.3125 1.515625 C 2.484375 1.625 2.65625 1.59375 2.828125 1.515625 C 3.03125 1.40625 3.25 1.234375 3.265625 1.203125 C 3.3125 1.15625 3.21875 1.109375 3.21875 1.09375 C 3.140625 1.046875 3.125 1.0625 3.046875 1.125 C 2.78125 1.375 2.5625 1.484375 2.421875 1.390625 C 2.296875 1.3125 2.296875 1.1875 2.390625 1.0625 C 2.421875 0.984375 2.578125 0.859375 2.671875 0.765625 Z M 2.203125 0.609375 C 2.171875 0.671875 2.171875 0.6875 2.03125 0.703125 C 1.75 0.796875 1.46875 0.78125 1.25 0.65625 C 1.109375 0.5625 0.921875 0.34375 1.140625 -0.015625 C 1.265625 -0.203125 1.65625 -0.578125 1.9375 -0.703125 C 2.25 -0.828125 2.515625 -0.8125 2.703125 -0.703125 C 2.890625 -0.578125 3 -0.34375 2.90625 -0.046875 Z M 2.203125 0.609375 "/>
</g>
<g id="glyph-6-1">
<path d="M 1.171875 0.671875 C 0.921875 1.0625 0.546875 1.15625 0.390625 1.171875 C 0.328125 1.1875 0.296875 1.1875 0.28125 1.203125 C 0.265625 1.234375 0.28125 1.3125 0.3125 1.34375 C 0.375 1.375 0.96875 1.296875 1.3125 0.765625 C 1.484375 0.5 1.484375 0.203125 1.296875 0.09375 C 1.140625 -0.015625 0.9375 0.046875 0.859375 0.1875 C 0.78125 0.3125 0.8125 0.5 0.96875 0.609375 C 1.03125 0.65625 1.09375 0.671875 1.171875 0.671875 Z M 1.171875 0.671875 "/>
</g>
<g id="glyph-6-2">
<path d="M 3.1875 -0.265625 C 3.09375 -0.28125 2.921875 -0.265625 2.828125 -0.140625 C 2.765625 -0.015625 2.796875 0.09375 2.90625 0.15625 C 3.015625 0.21875 3.234375 0.234375 3.359375 0.015625 C 3.546875 -0.28125 3.1875 -0.59375 2.953125 -0.734375 C 2.25 -1.1875 1.265625 -1 0.90625 -0.4375 C 0.671875 -0.078125 0.6875 0.5 1.3125 0.890625 C 1.390625 0.953125 1.734375 1.15625 2.09375 1.234375 C 2.453125 1.296875 2.75 1.203125 2.78125 1.171875 C 2.796875 1.125 2.765625 1.03125 2.734375 1.015625 C 2.703125 1 2.703125 1 2.609375 1.03125 C 2.265625 1.125 1.84375 1.03125 1.421875 0.765625 C 1.0625 0.53125 1.015625 0.234375 1.1875 -0.046875 C 1.46875 -0.484375 2.1875 -1.015625 2.859375 -0.59375 C 2.90625 -0.578125 3.109375 -0.4375 3.1875 -0.265625 Z M 3.1875 -0.265625 "/>
</g>
<g id="glyph-6-3">
<path d="M 3.0625 -1.9375 C 3.09375 -1.96875 3.109375 -1.984375 3.109375 -2 C 3.171875 -2.078125 3.125 -2.109375 3.046875 -2.140625 L 2.5 -2.453125 C 2.4375 -2.484375 2.421875 -2.5 2.390625 -2.484375 C 2.359375 -2.46875 2.3125 -2.421875 2.296875 -2.390625 C 2.25 -2.328125 2.328125 -2.28125 2.375 -2.25 C 2.375 -2.25 2.453125 -2.203125 2.515625 -2.140625 C 2.59375 -2.09375 2.578125 -2.078125 2.546875 -2.046875 C 2.53125 -2.015625 2.40625 -1.890625 2.3125 -1.8125 L 1.078125 -0.609375 C 1 -0.546875 0.953125 -0.484375 0.90625 -0.390625 C 0.625 0.0625 0.75 0.53125 1.140625 0.78125 C 1.75 1.171875 2.71875 0.9375 3.078125 0.359375 C 3.34375 -0.0625 3.234375 -0.5625 2.796875 -0.84375 C 2.625 -0.9375 2.375 -1 2.0625 -0.96875 Z M 1.25 0.65625 C 1.0625 0.53125 0.953125 0.28125 1.15625 -0.046875 C 1.25 -0.1875 1.34375 -0.28125 1.484375 -0.421875 C 1.515625 -0.4375 1.765625 -0.6875 1.796875 -0.703125 C 1.8125 -0.734375 2.34375 -0.921875 2.6875 -0.703125 C 2.875 -0.59375 2.984375 -0.34375 2.796875 -0.03125 C 2.703125 0.109375 2.375 0.46875 2.078125 0.625 C 1.78125 0.78125 1.46875 0.78125 1.25 0.65625 Z M 1.25 0.65625 "/>
</g>
<g id="glyph-6-4">
<path d="M 4.53125 -1.015625 C 4.5625 -1.046875 4.578125 -1.0625 4.578125 -1.078125 C 4.640625 -1.15625 4.578125 -1.203125 4.5 -1.21875 L 3.96875 -1.53125 C 3.890625 -1.5625 3.890625 -1.5625 3.84375 -1.5625 C 3.8125 -1.546875 3.78125 -1.515625 3.765625 -1.484375 C 3.71875 -1.421875 3.78125 -1.375 3.828125 -1.34375 C 3.84375 -1.328125 3.921875 -1.28125 3.96875 -1.234375 C 4.0625 -1.1875 4.046875 -1.15625 4.015625 -1.125 C 4.015625 -1.109375 3.90625 -1 3.828125 -0.921875 L 3.125 -0.25 C 3.125 -0.421875 3.0625 -0.671875 2.796875 -0.84375 C 2.203125 -1.203125 1.25 -1 0.875 -0.40625 C 0.59375 0.03125 0.71875 0.515625 1.140625 0.78125 C 1.484375 1 1.90625 0.921875 2 0.90625 C 1.953125 1.15625 2.109375 1.390625 2.3125 1.515625 C 2.484375 1.625 2.65625 1.59375 2.828125 1.515625 C 3.03125 1.40625 3.25 1.234375 3.265625 1.203125 C 3.3125 1.15625 3.21875 1.109375 3.21875 1.09375 C 3.140625 1.046875 3.125 1.0625 3.046875 1.125 C 2.78125 1.375 2.5625 1.484375 2.421875 1.390625 C 2.296875 1.3125 2.296875 1.1875 2.390625 1.0625 C 2.421875 1 2.46875 0.96875 2.484375 0.9375 Z M 2.203125 0.609375 C 2.171875 0.671875 2.171875 0.6875 2.03125 0.703125 C 1.75 0.796875 1.46875 0.78125 1.25 0.65625 C 1.109375 0.5625 0.921875 0.34375 1.140625 -0.015625 C 1.265625 -0.203125 1.65625 -0.578125 1.9375 -0.703125 C 2.25 -0.828125 2.515625 -0.8125 2.703125 -0.703125 C 2.890625 -0.578125 3 -0.34375 2.90625 -0.046875 Z M 2.203125 0.609375 "/>
</g>
</g>
</defs>
<path fill-rule="nonzero" fill="rgb(97.999573%, 97.999573%, 97.999573%)" fill-opacity="1" stroke-width="0.79701" stroke-linecap="butt" stroke-linejoin="miter" stroke="rgb(0%, 0%, 0%)" stroke-opacity="1" stroke-miterlimit="10" d="M 18.272507 8.503208 L -18.269899 8.503208 C -19.923614 8.503208 -21.25991 7.166912 -21.25991 5.517115 L -21.25991 -5.514185 C -21.25991 -7.163981 -19.923614 -8.504196 -18.269899 -8.504196 L 18.272507 -8.504196 C 19.922304 -8.504196 21.2586 -7.163981 21.2586 -5.514185 L 21.2586 5.517115 C 21.2586 7.166912 19.922304 8.503208 18.272507 8.503208 Z M 18.272507 8.503208 " transform="matrix(0.996809, 0, 0, -0.996809, 63.277997, 36.901851)"/>
<g fill="rgb(0%, 0%, 0%)" fill-opacity="1">
<use xlink:href="#glyph-0-0" x="50.464023" y="38.640285"/>
</g>
<g fill="rgb(0%, 0%, 0%)" fill-opacity="1">
<use xlink:href="#glyph-1-0" x="53.677722" y="38.640285"/>
</g>
<g fill="rgb(0%, 0%, 0%)" fill-opacity="1">
<use xlink:href="#glyph-2-0" x="57.771627" y="39.633106"/>
</g>
<g fill="rgb(0%, 0%, 0%)" fill-opacity="1">
<use xlink:href="#glyph-1-1" x="61.647218" y="38.640285"/>
</g>
<g fill="rgb(0%, 0%, 0%)" fill-opacity="1">
<use xlink:href="#glyph-1-2" x="65.361428" y="38.640285"/>
</g>
<g fill="rgb(0%, 0%, 0%)" fill-opacity="1">
<use xlink:href="#glyph-2-0" x="69.001671" y="39.633106"/>
</g>
<g fill="rgb(0%, 0%, 0%)" fill-opacity="1">
<use xlink:href="#glyph-0-1" x="72.87826" y="38.640285"/>
</g>
<path fill-rule="nonzero" fill="rgb(97.999573%, 97.999573%, 97.999573%)" fill-opacity="1" stroke-width="0.79701" stroke-linecap="butt" stroke-linejoin="miter" stroke="rgb(0%, 0%, 0%)" stroke-opacity="1" stroke-miterlimit="10" d="M 131.657813 8.503208 L 95.115407 8.503208 C 93.46561 8.503208 92.125395 7.166912 92.125395 5.517115 L 92.125395 -5.514185 C 92.125395 -7.163981 93.46561 -8.504196 95.115407 -8.504196 L 131.657813 -8.504196 C 133.307609 -8.504196 134.647824 -7.163981 134.647824 -5.514185 L 134.647824 5.517115 C 134.647824 7.166912 133.307609 8.503208 131.657813 8.503208 Z M 131.657813 8.503208 " transform="matrix(0.996809, 0, 0, -0.996809, 63.277997, 36.901851)"/>
<g fill="rgb(0%, 0%, 0%)" fill-opacity="1">
<use xlink:href="#glyph-0-0" x="163.488153" y="38.639288"/>
</g>
<g fill="rgb(0%, 0%, 0%)" fill-opacity="1">
<use xlink:href="#glyph-1-0" x="166.701852" y="38.639288"/>
</g>
<g fill="rgb(0%, 0%, 0%)" fill-opacity="1">
<use xlink:href="#glyph-2-1" x="170.795756" y="39.63211"/>
</g>
<g fill="rgb(0%, 0%, 0%)" fill-opacity="1">
<use xlink:href="#glyph-1-1" x="174.671348" y="38.639288"/>
</g>
<g fill="rgb(0%, 0%, 0%)" fill-opacity="1">
<use xlink:href="#glyph-1-2" x="178.385557" y="38.639288"/>
</g>
<g fill="rgb(0%, 0%, 0%)" fill-opacity="1">
<use xlink:href="#glyph-2-0" x="182.025801" y="39.63211"/>
</g>
<g fill="rgb(0%, 0%, 0%)" fill-opacity="1">
<use xlink:href="#glyph-0-1" x="185.902389" y="38.639288"/>
</g>
<path fill-rule="nonzero" fill="rgb(97.999573%, 97.999573%, 97.999573%)" fill-opacity="1" stroke-width="0.79701" stroke-linecap="butt" stroke-linejoin="miter" stroke="rgb(0%, 0%, 0%)" stroke-opacity="1" stroke-miterlimit="10" d="M 18.272507 -59.526408 L -18.269899 -59.526408 C -19.923614 -59.526408 -21.25991 -60.866623 -21.25991 -62.516419 L -21.25991 -73.547719 C -21.25991 -75.197516 -19.923614 -76.537731 -18.269899 -76.537731 L 18.272507 -76.537731 C 19.922304 -76.537731 21.2586 -75.197516 21.2586 -73.547719 L 21.2586 -62.516419 C 21.2586 -60.866623 19.922304 -59.526408 18.272507 -59.526408 Z M 18.272507 -59.526408 " transform="matrix(0.996809, 0, 0, -0.996809, 63.277997, 36.901851)"/>
<g fill="rgb(0%, 0%, 0%)" fill-opacity="1">
<use xlink:href="#glyph-0-0" x="50.464023" y="106.453168"/>
</g>
<g fill="rgb(0%, 0%, 0%)" fill-opacity="1">
<use xlink:href="#glyph-1-0" x="53.677722" y="106.453168"/>
</g>
<g fill="rgb(0%, 0%, 0%)" fill-opacity="1">
<use xlink:href="#glyph-2-0" x="57.771627" y="107.446986"/>
</g>
<g fill="rgb(0%, 0%, 0%)" fill-opacity="1">
<use xlink:href="#glyph-1-1" x="61.647218" y="106.453168"/>
</g>
<g fill="rgb(0%, 0%, 0%)" fill-opacity="1">
<use xlink:href="#glyph-1-2" x="65.361428" y="106.453168"/>
</g>
<g fill="rgb(0%, 0%, 0%)" fill-opacity="1">
<use xlink:href="#glyph-2-1" x="69.001671" y="107.446986"/>
</g>
<g fill="rgb(0%, 0%, 0%)" fill-opacity="1">
<use xlink:href="#glyph-0-1" x="72.87826" y="106.453168"/>
</g>
<path fill-rule="nonzero" fill="rgb(97.999573%, 97.999573%, 97.999573%)" fill-opacity="1" stroke-width="0.79701" stroke-linecap="butt" stroke-linejoin="miter" stroke="rgb(0%, 0%, 0%)" stroke-opacity="1" stroke-miterlimit="10" d="M 131.657813 -59.526408 L 95.115407 -59.526408 C 93.46561 -59.526408 92.125395 -60.866623 92.125395 -62.516419 L 92.125395 -73.547719 C 92.125395 -75.197516 93.46561 -76.537731 95.115407 -76.537731 L 131.657813 -76.537731 C 133.307609 -76.537731 134.647824 -75.197516 134.647824 -73.547719 L 134.647824 -62.516419 C 134.647824 -60.866623 133.307609 -59.526408 131.657813 -59.526408 Z M 131.657813 -59.526408 " transform="matrix(0.996809, 0, 0, -0.996809, 63.277997, 36.901851)"/>
<g fill="rgb(0%, 0%, 0%)" fill-opacity="1">
<use xlink:href="#glyph-0-0" x="163.488153" y="106.453168"/>
</g>
<g fill="rgb(0%, 0%, 0%)" fill-opacity="1">
<use xlink:href="#glyph-1-0" x="166.701852" y="106.453168"/>
</g>
<g fill="rgb(0%, 0%, 0%)" fill-opacity="1">
<use xlink:href="#glyph-2-1" x="170.795756" y="107.446986"/>
</g>
<g fill="rgb(0%, 0%, 0%)" fill-opacity="1">
<use xlink:href="#glyph-1-1" x="174.671348" y="106.453168"/>
</g>
<g fill="rgb(0%, 0%, 0%)" fill-opacity="1">
<use xlink:href="#glyph-1-2" x="178.385557" y="106.453168"/>
</g>
<g fill="rgb(0%, 0%, 0%)" fill-opacity="1">
<use xlink:href="#glyph-2-1" x="182.025801" y="107.446986"/>
</g>
<g fill="rgb(0%, 0%, 0%)" fill-opacity="1">
<use xlink:href="#glyph-0-1" x="185.902389" y="106.453168"/>
</g>
<path fill="none" stroke-width="0.79701" stroke-linecap="butt" stroke-linejoin="miter" stroke="rgb(0%, 0%, 0%)" stroke-opacity="1" stroke-miterlimit="10" d="M -35.434053 -0.000494264 L -27.835584 -0.000494264 " transform="matrix(0.996809, 0, 0, -0.996809, 63.277997, 36.901851)"/>
<path fill-rule="nonzero" fill="rgb(0%, 0%, 0%)" fill-opacity="1" stroke-width="0.79701" stroke-linecap="butt" stroke-linejoin="miter" stroke="rgb(0%, 0%, 0%)" stroke-opacity="1" stroke-miterlimit="10" d="M 4.533948 -0.000494264 C 3.977484 0.136662 1.528261 0.920414 -0.000053778 1.770784 L -0.000053778 -1.771772 C 1.528261 -0.921402 3.977484 -0.137651 4.533948 -0.000494264 Z M 4.533948 -0.000494264 " transform="matrix(0.996809, 0, 0, -0.996809, 35.531304, 36.901851)"/>
<path fill="none" stroke-width="0.79701" stroke-linecap="butt" stroke-linejoin="miter" stroke="rgb(0%, 0%, 0%)" stroke-opacity="1" stroke-miterlimit="10" d="M 22.653677 -0.000494264 L 84.554358 -0.000494264 " transform="matrix(0.996809, 0, 0, -0.996809, 63.277997, 36.901851)"/>
<path fill-rule="nonzero" fill="rgb(0%, 0%, 0%)" fill-opacity="1" stroke-width="0.79701" stroke-linecap="butt" stroke-linejoin="miter" stroke="rgb(0%, 0%, 0%)" stroke-opacity="1" stroke-miterlimit="10" d="M 4.532939 -0.000494264 C 3.976476 0.136662 1.531171 0.920414 -0.00106248 1.770784 L -0.00106248 -1.771772 C 1.531171 -0.921402 3.976476 -0.137651 4.532939 -0.000494264 Z M 4.532939 -0.000494264 " transform="matrix(0.996809, 0, 0, -0.996809, 147.563559, 36.901851)"/>
<g fill="rgb(0%, 0%, 0%)" fill-opacity="1">
<use xlink:href="#glyph-3-0" x="117.867218" y="33.525661"/>
</g>
<path fill="none" stroke-width="0.79701" stroke-linecap="butt" stroke-linejoin="miter" stroke="rgb(0%, 0%, 0%)" stroke-opacity="1" stroke-miterlimit="10" d="M -0.000655149 -9.899274 L -0.000655149 -51.95537 " transform="matrix(0.996809, 0, 0, -0.996809, 63.277997, 36.901851)"/>
<path fill-rule="nonzero" fill="rgb(0%, 0%, 0%)" fill-opacity="1" stroke-width="0.79701" stroke-linecap="butt" stroke-linejoin="miter" stroke="rgb(0%, 0%, 0%)" stroke-opacity="1" stroke-miterlimit="10" d="M 4.532952 -0.000655149 C 3.976488 0.136501 1.531184 0.920253 -0.0010498 1.770623 L -0.0010498 -1.771933 C 1.531184 -0.921563 3.976488 -0.137812 4.532952 -0.000655149 Z M 4.532952 -0.000655149 " transform="matrix(0, 0.996809, 0.996809, 0, 63.277997, 88.692453)"/>
<g fill="rgb(0%, 0%, 0%)" fill-opacity="1">
<use xlink:href="#glyph-3-1" x="56.756876" y="72.533768"/>
</g>
<path fill="none" stroke-width="0.79701" stroke-linecap="butt" stroke-linejoin="miter" stroke="rgb(0%, 0%, 0%)" stroke-opacity="1" stroke-miterlimit="10" d="M 110.743408 9.863016 C 107.149908 23.280839 119.62723 23.280839 117.628664 15.831283 " transform="matrix(0.996809, 0, 0, -0.996809, 63.277997, 36.901851)"/>
<path fill-rule="nonzero" fill="rgb(0%, 0%, 0%)" fill-opacity="1" stroke-width="0.79701" stroke-linecap="butt" stroke-linejoin="miter" stroke="rgb(0%, 0%, 0%)" stroke-opacity="1" stroke-miterlimit="10" d="M 4.535149 0.00209027 C 3.975849 0.1362 1.530085 0.921028 -0.000444401 1.772614 L 0.000386231 -1.773036 C 1.528819 -0.921218 3.976693 -0.139454 4.535149 0.00209027 Z M 4.535149 0.00209027 " transform="matrix(-0.258024, 0.962827, 0.962827, 0.258024, 180.531446, 21.121176)"/>
<g fill="rgb(0%, 0%, 0%)" fill-opacity="1">
<use xlink:href="#glyph-3-0" x="174.379283" y="13.903485"/>
</g>
<path fill="none" stroke-width="0.79701" stroke-linecap="butt" stroke-linejoin="miter" stroke="rgb(0%, 0%, 0%)" stroke-opacity="1" stroke-miterlimit="10" d="M 136.007633 6.057904 C 152.536948 10.490017 152.536948 -10.491006 141.975899 -7.657745 " transform="matrix(0.996809, 0, 0, -0.996809, 63.277997, 36.901851)"/>
<path fill-rule="nonzero" fill="rgb(0%, 0%, 0%)" fill-opacity="1" stroke-width="0.79701" stroke-linecap="butt" stroke-linejoin="miter" stroke="rgb(0%, 0%, 0%)" stroke-opacity="1" stroke-miterlimit="10" d="M 4.533698 0.00188335 C 3.978162 0.136927 1.528493 0.920385 0.00162099 1.772766 L -0.000817269 -1.773907 C 1.53128 -0.92085 3.979046 -0.138727 4.533698 0.00188335 Z M 4.533698 0.00188335 " transform="matrix(-0.962787, -0.258163, -0.258163, 0.962787, 204.799068, 44.535809)"/>
<g fill="rgb(0%, 0%, 0%)" fill-opacity="1">
<use xlink:href="#glyph-3-2" x="214.342333" y="37.97043"/>
</g>
<path fill="none" stroke-width="0.79701" stroke-linecap="butt" stroke-linejoin="miter" stroke="rgb(0%, 0%, 0%)" stroke-opacity="1" stroke-miterlimit="10" d="M 113.388569 -9.899274 L 113.388569 -51.95537 " transform="matrix(0.996809, 0, 0, -0.996809, 63.277997, 36.901851)"/>
<path fill-rule="nonzero" fill="rgb(0%, 0%, 0%)" fill-opacity="1" stroke-width="0.79701" stroke-linecap="butt" stroke-linejoin="miter" stroke="rgb(0%, 0%, 0%)" stroke-opacity="1" stroke-miterlimit="10" d="M 4.532952 0.0013291 C 3.976488 0.138486 1.531184 0.922237 -0.0010498 1.772607 L -0.0010498 -1.773868 C 1.531184 -0.919579 3.976488 -0.139746 4.532952 0.0013291 Z M 4.532952 0.0013291 " transform="matrix(0, 0.996809, 0.996809, 0, 176.303363, 88.692453)"/>
<g fill="rgb(0%, 0%, 0%)" fill-opacity="1">
<use xlink:href="#glyph-3-1" x="169.781005" y="72.532771"/>
</g>
<path fill="none" stroke-width="0.79701" stroke-linecap="butt" stroke-linejoin="miter" stroke="rgb(0%, 0%, 0%)" stroke-opacity="1" stroke-miterlimit="10" d="M 22.653677 -68.034029 L 84.554358 -68.034029 " transform="matrix(0.996809, 0, 0, -0.996809, 63.277997, 36.901851)"/>
<path fill-rule="nonzero" fill="rgb(0%, 0%, 0%)" fill-opacity="1" stroke-width="0.79701" stroke-linecap="butt" stroke-linejoin="miter" stroke="rgb(0%, 0%, 0%)" stroke-opacity="1" stroke-miterlimit="10" d="M 4.532939 -0.00185882 C 3.976476 0.139216 1.531171 0.919049 -0.00106248 1.773338 L -0.00106248 -1.773137 C 1.531171 -0.918848 3.976476 -0.139015 4.532939 -0.00185882 Z M 4.532939 -0.00185882 " transform="matrix(0.996809, 0, 0, -0.996809, 147.563559, 104.716897)"/>
<g fill="rgb(0%, 0%, 0%)" fill-opacity="1">
<use xlink:href="#glyph-3-0" x="117.867218" y="110.230076"/>
</g>
<path fill="none" stroke-width="0.79701" stroke-linecap="butt" stroke-linejoin="miter" stroke="rgb(0%, 0%, 0%)" stroke-opacity="1" stroke-miterlimit="10" d="M -22.619719 -74.088508 C -56.638445 -83.207455 -56.638445 -52.856684 -28.587985 -60.376778 " transform="matrix(0.996809, 0, 0, -0.996809, 63.277997, 36.901851)"/>
<path fill-rule="nonzero" fill="rgb(0%, 0%, 0%)" fill-opacity="1" stroke-width="0.79701" stroke-linecap="butt" stroke-linejoin="miter" stroke="rgb(0%, 0%, 0%)" stroke-opacity="1" stroke-miterlimit="10" d="M 4.534663 0.00121521 C 3.978117 0.140078 1.529496 0.919905 -0.00111895 1.771368 L -0.0010015 -1.770526 C 1.528386 -0.922356 3.975199 -0.136592 4.534663 0.00121521 Z M 4.534663 0.00121521 " transform="matrix(0.962797, 0.258104, 0.258104, -0.962797, 34.782162, 97.084663)"/>
<g fill="rgb(0%, 0%, 0%)" fill-opacity="1">
<use xlink:href="#glyph-3-1" x="9.016726" y="106.439213"/>
</g>
<path fill="none" stroke-width="0.79701" stroke-linecap="butt" stroke-linejoin="miter" stroke="rgb(0%, 0%, 0%)" stroke-opacity="1" stroke-miterlimit="10" d="M 2.644506 -77.897539 C 6.238005 -91.311443 -6.239316 -91.311443 -4.24075 -83.861887 " transform="matrix(0.996809, 0, 0, -0.996809, 63.277997, 36.901851)"/>
<path fill-rule="nonzero" fill="rgb(0%, 0%, 0%)" fill-opacity="1" stroke-width="0.79701" stroke-linecap="butt" stroke-linejoin="miter" stroke="rgb(0%, 0%, 0%)" stroke-opacity="1" stroke-miterlimit="10" d="M 4.533051 0.000830177 C 3.976521 0.13974 1.527987 0.919767 0.00124238 1.772368 L 0.00207301 -1.773281 C 1.530506 -0.921464 3.97838 -0.1397 4.533051 0.000830177 Z M 4.533051 0.000830177 " transform="matrix(0.258024, -0.962827, -0.962827, -0.258024, 59.049914, 120.497572)"/>
<g fill="rgb(0%, 0%, 0%)" fill-opacity="1">
<use xlink:href="#glyph-3-3" x="61.441876" y="131.163054"/>
</g>
<path fill="none" stroke-width="0.79701" stroke-linecap="butt" stroke-linejoin="miter" stroke="rgb(0%, 0%, 0%)" stroke-opacity="1" stroke-miterlimit="10" d="M 136.007633 -61.971712 C 152.536948 -57.543517 152.536948 -78.520622 141.975899 -75.691279 " transform="matrix(0.996809, 0, 0, -0.996809, 63.277997, 36.901851)"/>
<path fill-rule="nonzero" fill="rgb(0%, 0%, 0%)" fill-opacity="1" stroke-width="0.79701" stroke-linecap="butt" stroke-linejoin="miter" stroke="rgb(0%, 0%, 0%)" stroke-opacity="1" stroke-miterlimit="10" d="M 4.53436 -0.000583724 C 3.977809 0.138245 1.52814 0.921703 0.00126758 1.774084 L -0.00117068 -1.772589 C 1.530927 -0.919532 3.978693 -0.137409 4.53436 -0.000583724 Z M 4.53436 -0.000583724 " transform="matrix(-0.962787, -0.258163, -0.258163, 0.962787, 204.799068, 112.350855)"/>
<g fill="rgb(0%, 0%, 0%)" fill-opacity="1">
<use xlink:href="#glyph-3-0" x="214.342333" y="105.956757"/>
<use xlink:href="#glyph-3-4" x="218.18754" y="105.956757"/>
</g>
<g fill="rgb(0%, 0%, 0%)" fill-opacity="1">
<use xlink:href="#glyph-3-1" x="221.684673" y="105.956757"/>
<use xlink:href="#glyph-3-4" x="224.829262" y="105.956757"/>
</g>
<g fill="rgb(0%, 0%, 0%)" fill-opacity="1">
<use xlink:href="#glyph-3-2" x="228.32143" y="105.956757"/>
<use xlink:href="#glyph-3-4" x="231.545962" y="105.956757"/>
</g>
<g fill="rgb(0%, 0%, 0%)" fill-opacity="1">
<use xlink:href="#glyph-3-3" x="235.038129" y="105.956757"/>
</g>
<path fill="none" stroke-width="0.79701" stroke-linecap="butt" stroke-linejoin="miter" stroke="rgb(0%, 0%, 0%)" stroke-opacity="1" stroke-miterlimit="10" d="M -2.641897 9.863016 C -6.239316 23.280839 6.238005 23.280839 4.243358 15.831283 " transform="matrix(0.996809, 0, 0, -0.996809, 63.277997, 36.901851)"/>
<path fill-rule="nonzero" fill="rgb(0%, 0%, 0%)" fill-opacity="1" stroke-width="0.79701" stroke-linecap="butt" stroke-linejoin="miter" stroke="rgb(0%, 0%, 0%)" stroke-opacity="1" stroke-miterlimit="10" d="M 4.535663 0.000173632 C 3.975348 0.138069 1.530599 0.919111 0.0000692307 1.770697 L -0.000114523 -1.771167 C 1.528318 -0.919349 3.976192 -0.137585 4.535663 0.000173632 Z M 4.535663 0.000173632 " transform="matrix(-0.258024, 0.962827, 0.962827, 0.258024, 67.50608, 21.121176)"/>
<g fill="rgb(0%, 0%, 0%)" fill-opacity="1">
<use xlink:href="#glyph-4-0" x="42.196494" y="12.661462"/>
<use xlink:href="#glyph-4-0" x="45.161832" y="12.661462"/>
</g>
<g fill="rgb(0%, 0%, 0%)" fill-opacity="1">
<use xlink:href="#glyph-3-0" x="48.12717" y="12.661462"/>
<use xlink:href="#glyph-3-4" x="51.972378" y="12.661462"/>
</g>
<g fill="rgb(0%, 0%, 0%)" fill-opacity="1">
<use xlink:href="#glyph-3-2" x="55.464545" y="12.661462"/>
</g>
<g fill="rgb(0%, 0%, 0%)" fill-opacity="1">
<use xlink:href="#glyph-4-1" x="58.689077" y="12.661462"/>
</g>
<g fill="rgb(0%, 0%, 0%)" fill-opacity="1">
<use xlink:href="#glyph-3-4" x="61.659381" y="12.661462"/>
</g>
<g fill="rgb(0%, 0%, 0%)" fill-opacity="1">
<use xlink:href="#glyph-4-0" x="65.151548" y="12.661462"/>
</g>
<g fill="rgb(0%, 0%, 0%)" fill-opacity="1">
<use xlink:href="#glyph-3-1" x="68.116886" y="12.661462"/>
<use xlink:href="#glyph-3-4" x="71.261476" y="12.661462"/>
</g>
<g fill="rgb(0%, 0%, 0%)" fill-opacity="1">
<use xlink:href="#glyph-3-3" x="74.753643" y="12.661462"/>
</g>
<g fill="rgb(0%, 0%, 0%)" fill-opacity="1">
<use xlink:href="#glyph-4-1" x="78.426551" y="12.661462"/>
<use xlink:href="#glyph-4-1" x="81.391889" y="12.661462"/>
</g>
<path fill="none" stroke-width="0.79701" stroke-linecap="butt" stroke-linejoin="miter" stroke="rgb(0%, 0%, 0%)" stroke-opacity="1" stroke-miterlimit="10" d="M 22.594896 -7.783145 C 57.28373 -20.526942 76.614957 -32.686844 98.689313 -54.13028 " transform="matrix(0.996809, 0, 0, -0.996809, 63.277997, 36.901851)"/>
<path fill-rule="nonzero" fill="rgb(0%, 0%, 0%)" fill-opacity="1" stroke-width="0.79701" stroke-linecap="butt" stroke-linejoin="miter" stroke="rgb(0%, 0%, 0%)" stroke-opacity="1" stroke-miterlimit="10" d="M 4.532603 0.00129406 C 3.97756 0.139592 1.530664 0.92055 -0.000664925 1.771382 L 0.000627347 -1.77323 C 1.528901 -0.922391 3.979086 -0.137568 4.532603 0.00129406 Z M 4.532603 0.00129406 " transform="matrix(0.714961, 0.694536, 0.694536, -0.714961, 161.652999, 90.860681)"/>
<g fill="rgb(0%, 0%, 0%)" fill-opacity="1">
<use xlink:href="#glyph-5-0" x="113.578948" y="49.954062"/>
<use xlink:href="#glyph-5-0" x="116.088929" y="51.532837"/>
</g>
<g fill="rgb(0%, 0%, 0%)" fill-opacity="1">
<use xlink:href="#glyph-6-0" x="118.59891" y="53.111613"/>
<use xlink:href="#glyph-6-1" x="121.853647" y="55.15884"/>
</g>
<g fill="rgb(0%, 0%, 0%)" fill-opacity="1">
<use xlink:href="#glyph-6-2" x="124.809557" y="57.018105"/>
</g>
<g fill="rgb(0%, 0%, 0%)" fill-opacity="1">
<use xlink:href="#glyph-5-1" x="127.543133" y="58.737522"/>
</g>
<g fill="rgb(0%, 0%, 0%)" fill-opacity="1">
<use xlink:href="#glyph-6-1" x="130.053114" y="60.316297"/>
</g>
<g fill="rgb(0%, 0%, 0%)" fill-opacity="1">
<use xlink:href="#glyph-5-0" x="133.009024" y="62.175562"/>
</g>
<g fill="rgb(0%, 0%, 0%)" fill-opacity="1">
<use xlink:href="#glyph-6-3" x="135.519005" y="63.754338"/>
<use xlink:href="#glyph-6-1" x="138.180711" y="65.428549"/>
</g>
<g fill="rgb(0%, 0%, 0%)" fill-opacity="1">
<use xlink:href="#glyph-6-4" x="141.136621" y="67.287814"/>
</g>
<g fill="rgb(0%, 0%, 0%)" fill-opacity="1">
<use xlink:href="#glyph-5-1" x="144.245518" y="69.243307"/>
<use xlink:href="#glyph-5-1" x="146.755499" y="70.822082"/>
</g>
</svg>
